<svg xmlns="http://www.w3.org/2000/svg" version="1.0" width="2048.000000pt" height="2048.000000pt" viewBox="0 0 2048.000000 2048.000000" preserveAspectRatio="xMidYMid meet">

<g transform="translate(0.000000,2048.000000) scale(0.100000,-0.100000)" fill="#773084" stroke="none">
<path d="M10320 15903 c-219 -34 -496 -108 -650 -173 -192 -81 -465 -262 -613 -408 -435 -427 -614 -1056 -486 -1702 50 -247 172 -491 322 -640 66 -66 93 -79 53 -27 -33 43 -80 147 -97 217 -9 35 -14 111 -14 210 0 144 2 160 27 222 37 92 87 168 161 242 112 112 158 144 332 230 137 67 176 83 225 91 25 4 64 13 87 21 50 16 69 11 77 -21 4 -14 6 -253 5 -532 -1 -280 -1 -635 0 -791 1 -156 -1 -297 -4 -314 -7 -28 -9 -30 -48 -25 -54 6 -129 28 -189 56 -26 11 -52 21 -58 21 -5 0 -18 4 -28 9 -9 5 -57 29 -107 53 -49 24 -92 46 -95 49 -3 4 -28 19 -56 34 -27 15 -70 45 -95 66 -24 22 -60 52 -79 66 -19 15 -47 39 -62 55 -14 16 -30 28 -35 27 -23 -4 -34 3 -31 19 4 23 -19 52 -39 52 -9 0 -32 19 -52 42 -20 23 -44 49 -53 57 -10 9 -18 19 -18 24 0 4 -11 20 -25 34 -13 15 -29 40 -36 55 -6 15 -14 28 -18 28 -4 0 -29 45 -56 100 -27 55 -52 95 -56 89 -4 -7 -12 -8 -20 -4 -7 5 -29 9 -50 9 -21 1 -46 9 -57 19 -13 12 -22 15 -27 8 -3 -6 -1 -11 6 -11 22 0 58 -41 52 -58 -5 -11 -3 -13 8 -7 8 4 11 4 6 0 -10 -11 -47 -14 -47 -4 0 4 8 13 18 18 9 6 12 11 5 11 -6 0 -15 -5 -18 -10 -10 -16 -24 -2 -20 20 2 12 0 18 -6 15 -5 -4 -7 -11 -4 -16 10 -15 -11 -10 -25 6 -6 8 -8 20 -4 27 5 10 4 10 -6 1 -7 -6 -9 -17 -4 -24 4 -7 8 -30 9 -51 1 -32 0 -36 -13 -26 -8 7 -10 14 -4 16 12 4 4 32 -9 32 -4 0 -5 -7 -2 -17 5 -12 3 -14 -8 -8 -21 14 -48 13 -60 -2 -8 -9 -8 -13 0 -13 6 0 11 5 11 11 0 5 5 7 11 3 8 -4 8 -9 0 -17 -7 -7 -7 -14 0 -24 13 -15 29 -17 29 -3 0 6 -7 10 -16 10 -8 0 -12 5 -9 10 4 6 11 8 16 5 5 -3 6 2 3 12 -5 16 -4 16 10 -1 8 -10 13 -23 9 -29 -3 -5 1 -13 8 -18 11 -7 9 -9 -6 -10 -11 -1 -24 -3 -30 -4 -5 -2 -16 -3 -22 -4 -7 0 -13 -6 -13 -12 0 -8 5 -8 15 1 10 9 15 9 15 1 0 -11 -9 -14 -41 -14 -11 0 -16 -8 -15 -23 0 -14 6 -22 11 -20 6 2 12 -5 12 -15 2 -24 -6 -24 -23 -1 -11 14 -15 15 -26 3 -11 -12 -10 -13 5 -8 9 4 17 3 17 -2 0 -10 -40 -19 -58 -13 -7 2 -10 8 -6 13 3 5 0 9 -5 9 -6 0 -11 -4 -11 -10 0 -14 -27 -12 -33 3 -3 6 -6 2 -6 -10 -1 -14 -7 -23 -18 -23 -13 0 -11 -4 7 -20 25 -22 42 -28 22 -8 -19 19 -14 32 6 17 15 -13 16 -12 3 4 -7 9 -9 17 -5 17 5 0 15 -9 22 -21 8 -12 9 -18 3 -14 -17 10 -13 -6 6 -27 16 -18 16 -18 0 -12 -9 3 -17 9 -17 13 0 4 -14 7 -30 6 -20 0 -29 -4 -25 -12 2 -7 0 -13 -5 -13 -6 0 -10 7 -10 16 0 10 -5 12 -12 7 -27 -16 -53 -13 -70 9 -22 28 -23 45 -3 28 10 -9 15 -9 15 -1 0 6 -5 11 -11 11 -7 0 0 12 15 27 14 14 23 29 20 32 -4 3 -9 1 -11 -6 -2 -7 -12 -9 -21 -6 -13 4 -14 2 -4 -5 10 -7 5 -16 -22 -39 -26 -24 -31 -34 -23 -43 9 -9 8 -11 -3 -8 -8 1 -15 -2 -15 -7 0 -6 3 -9 7 -8 4 2 6 -6 5 -17 -2 -24 -4 -24 -23 -6 -16 16 -20 71 -4 61 6 -3 7 1 4 9 -3 9 -10 13 -15 10 -5 -3 -10 15 -10 40 -3 69 -3 70 -19 86 -9 8 -11 12 -6 8 16 -13 31 -9 19 3 -8 8 -8 20 -3 35 6 14 6 24 1 24 -5 0 -16 3 -24 6 -9 3 -16 -3 -20 -16 -4 -15 -10 -19 -18 -14 -10 6 -10 9 -1 12 7 2 12 8 12 14 0 6 8 17 18 24 14 10 11 11 -20 1 -20 -6 -32 -14 -27 -18 6 -3 1 -9 -12 -12 -30 -8 -41 0 -34 24 6 18 5 19 -14 7 -14 -9 -17 -14 -8 -20 7 -4 8 -8 2 -8 -5 0 -4 -4 3 -9 11 -6 9 -9 -6 -13 -14 -4 -19 -2 -15 7 3 9 -2 13 -14 11 -10 -2 -12 -1 -5 1 9 3 12 13 8 28 -5 18 1 28 22 44 15 11 22 21 15 21 -6 0 -18 -7 -27 -15 -8 -8 -23 -15 -33 -16 -10 0 -13 -3 -5 -6 6 -2 10 -9 6 -14 -3 -5 0 -9 5 -9 6 0 11 -5 11 -11 0 -5 -5 -7 -10 -4 -6 4 -18 1 -26 -6 -29 -24 -44 -20 -32 7 7 14 17 23 24 20 8 -3 11 0 7 10 -6 16 -20 19 -25 3 -2 -5 -11 -7 -21 -3 -11 4 -16 13 -13 21 3 8 1 23 -4 33 -6 10 -11 38 -11 62 -1 24 -6 51 -11 61 -8 15 -5 17 19 12 l28 -5 -26 10 c-25 10 -25 11 -24 119 0 60 -3 107 -7 105 -4 -3 -8 0 -8 5 0 6 4 11 9 11 12 0 12 78 0 86 -5 3 -7 -8 -5 -25 2 -16 -1 -35 -6 -43 -7 -9 -8 -8 -4 6 5 14 2 17 -10 12 -9 -4 -22 -2 -28 3 -8 7 -12 4 -13 -11 -1 -12 6 -28 15 -35 15 -13 15 -13 -5 -4 -30 15 -33 14 -34 -11 0 -13 -3 -17 -6 -10 -2 6 -11 12 -19 12 -8 0 -14 6 -14 14 0 8 -5 18 -12 22 -7 5 -9 2 -6 -7 4 -10 -1 -15 -13 -15 -11 0 -19 6 -19 14 0 10 -4 10 -16 -3 -13 -13 -19 -13 -32 -3 -11 9 -10 4 3 -14 22 -31 38 -37 28 -11 -5 12 -3 14 8 7 8 -5 17 -9 21 -9 13 0 18 -12 5 -13 -6 -1 -25 -4 -40 -8 -20 -5 -27 -3 -25 6 2 7 -3 15 -9 17 -22 8 -14 -14 11 -34 44 -35 -20 -52 -73 -19 -10 6 -12 5 -7 -2 4 -7 2 -12 -4 -12 -6 0 -9 -4 -5 -10 3 -5 11 -7 19 -4 7 3 13 -2 13 -11 0 -18 1 -18 -32 -5 -17 6 -24 14 -19 22 4 7 -1 6 -12 -4 -24 -21 -71 -13 -79 13 -4 10 -11 19 -17 19 -5 0 -8 -7 -4 -15 3 -8 1 -15 -4 -15 -6 0 -10 5 -10 10 0 6 -4 10 -10 10 -5 0 -7 -7 -4 -15 4 -8 17 -15 30 -15 16 0 22 -4 18 -14 -3 -8 -1 -17 5 -21 7 -4 8 0 4 11 -4 11 -2 15 6 13 22 -8 15 -23 -19 -43 -26 -16 -38 -17 -61 -9 -20 8 -29 8 -33 -1 -2 -6 -3 8 -2 32 2 40 -7 57 -17 30 -2 -7 -8 -9 -13 -5 -5 5 -1 15 10 23 19 14 19 14 -1 14 -12 0 -23 -6 -26 -12 -3 -10 -7 -10 -18 -1 -12 10 -15 8 -17 -11 -1 -15 6 -27 21 -34 19 -9 20 -11 3 -11 -15 -1 -16 -4 -6 -16 11 -13 10 -14 -4 -9 -10 4 -15 13 -12 20 6 15 -6 17 -53 8 -17 -4 -31 -11 -31 -16 0 -6 8 -7 18 -3 9 4 26 8 36 11 19 3 19 3 0 -15 -13 -12 -21 -15 -26 -7 -5 7 -8 7 -8 -2 0 -7 -4 -10 -10 -7 -5 3 -10 -1 -10 -9 0 -9 6 -13 14 -10 19 7 31 -15 17 -29 -9 -9 -10 -8 -5 7 5 14 3 17 -7 14 -8 -2 -16 -18 -18 -34 -3 -26 -4 -27 -12 -9 -7 16 -8 14 -4 -8 4 -19 2 -26 -5 -22 -18 11 -11 -21 11 -46 l20 -24 -28 -23 c-15 -14 -22 -21 -14 -16 11 5 13 3 8 -9 -5 -13 -1 -17 16 -18 12 0 16 -3 9 -6 -6 -2 -10 -9 -6 -14 3 -5 0 -9 -5 -9 -6 0 -11 5 -11 10 0 6 -8 10 -17 10 -15 0 -16 -2 -3 -10 11 -7 11 -10 2 -10 -7 0 -10 -5 -7 -10 4 -6 10 -8 14 -6 4 3 7 -5 8 -17 0 -12 -1 -16 -4 -9 -9 23 -22 12 -19 -15 1 -16 -2 -34 -8 -42 -8 -11 -8 -13 2 -7 6 4 12 3 12 -3 0 -5 -4 -13 -10 -16 -14 -9 -5 -251 15 -385 33 -216 122 -504 212 -684 67 -133 200 -337 288 -441 94 -112 247 -256 363 -344 67 -51 127 -102 133 -112 5 -10 14 -69 20 -131 15 -176 38 -282 90 -425 55 -152 112 -264 180 -355 50 -65 163 -186 211 -226 67 -53 180 -133 224 -158 27 -15 56 -31 64 -36 57 -31 203 -91 254 -104 33 -8 75 -20 92 -25 70 -21 241 -30 361 -19 65 6 132 15 148 19 17 5 57 17 90 26 33 10 69 21 80 26 33 14 107 31 112 25 7 -7 5 -1554 -2 -1566 -8 -13 -72 -13 -127 -1 -24 6 -86 18 -138 27 -52 9 -99 21 -105 25 -23 21 -63 5 -159 -63 -197 -141 -316 -279 -406 -470 -22 -47 -45 -108 -52 -136 -6 -28 -15 -49 -20 -46 -4 3 -6 9 -3 14 3 4 -1 11 -7 14 -10 5 -10 7 0 12 6 3 12 10 12 15 0 6 -4 7 -10 4 -5 -3 -10 -1 -10 6 0 7 -8 9 -22 4 -13 -3 -30 -7 -38 -7 -8 -1 -18 -6 -22 -11 -4 -7 -12 -6 -22 2 -9 7 -23 11 -31 7 -10 -3 -13 -2 -10 5 4 5 2 16 -4 23 -9 10 -7 15 9 19 11 3 23 1 26 -4 3 -5 -2 -9 -11 -9 -9 0 -14 -4 -10 -10 3 -5 12 -7 20 -3 10 3 15 -1 15 -13 0 -13 3 -15 11 -7 8 8 7 17 -2 32 -17 25 -31 31 -58 24 -18 -4 -21 -11 -17 -34 5 -31 0 -34 -24 -19 -10 6 -11 10 -2 10 6 0 12 5 12 10 0 6 -10 10 -21 10 -16 0 -20 5 -16 20 3 11 1 20 -4 20 -5 0 -9 -9 -9 -20 0 -14 -7 -20 -22 -20 -17 0 -19 -3 -9 -9 9 -6 10 -11 2 -15 -6 -4 -18 0 -27 8 -9 9 -21 13 -27 9 -6 -4 -8 0 -4 9 3 9 0 21 -6 27 -14 14 -30 14 -21 0 4 -7 1 -10 -6 -7 -19 6 -36 35 -27 45 5 4 11 3 15 -2 10 -15 29 -16 29 -2 0 7 -12 13 -25 12 -19 0 -27 -7 -33 -28 -12 -43 3 -345 17 -369 2 -4 0 -9 -6 -13 -5 -3 -10 -12 -10 -18 0 -8 3 -8 9 1 7 11 9 11 14 -2 5 -11 1 -16 -13 -16 -11 0 -20 5 -20 11 0 5 -4 7 -10 4 -5 -3 -10 2 -10 12 0 13 -3 15 -8 5 -5 -7 -16 -10 -25 -6 -9 3 -17 2 -17 -3 0 -5 10 -9 21 -10 30 -3 40 -15 28 -33 -8 -13 -11 -13 -23 3 -16 20 -30 23 -23 4 3 -8 -1 -14 -8 -14 -7 0 -12 7 -11 16 1 17 -34 23 -56 10 -9 -6 -4 -9 15 -9 15 0 27 -4 27 -9 0 -6 -9 -8 -20 -6 -14 3 -20 -2 -20 -13 0 -9 -5 -24 -11 -32 -9 -13 -10 -13 -6 1 4 12 -2 18 -19 22 -19 3 -22 2 -13 -9 6 -7 8 -18 4 -24 -3 -5 1 -10 9 -10 9 0 16 -4 16 -9 0 -5 -12 -7 -27 -5 -27 5 -27 5 -8 -11 11 -9 14 -14 8 -10 -7 3 -13 1 -13 -4 0 -31 -23 -1 -63 82 -44 89 -71 167 -82 235 -17 103 -19 111 -30 100 -3 -3 -9 -61 -12 -128 -5 -99 -3 -124 8 -131 8 -5 9 -9 3 -9 -7 0 -11 -16 -11 -40 0 -22 5 -40 10 -40 5 0 4 -7 -3 -15 -10 -12 -10 -18 0 -30 7 -8 9 -15 4 -15 -5 0 -2 -5 6 -10 12 -8 12 -12 2 -18 -27 -18 16 -242 66 -342 11 -22 14 -37 9 -33 -6 4 -1 -7 11 -24 12 -17 22 -40 22 -51 0 -12 9 -23 19 -27 11 -3 24 -20 30 -37 13 -38 14 -48 1 -28 -7 10 -10 11 -10 2 0 -7 7 -15 15 -18 8 -4 15 -11 15 -16 0 -21 105 -160 167 -220 99 -96 154 -138 278 -215 110 -68 191 -105 320 -147 61 -20 124 -41 140 -46 58 -21 359 -32 510 -20 77 7 148 17 158 22 45 23 46 13 49 -249 l3 -248 545 -2 c300 0 563 2 585 6 l40 7 5 564 5 564 48 12 c27 7 88 15 135 19 48 4 101 11 117 15 27 8 202 34 295 44 43 4 294 69 370 95 30 11 82 27 115 36 64 18 102 31 150 50 17 7 55 20 85 29 202 65 667 335 835 485 23 20 67 59 100 86 132 112 281 276 383 424 41 58 77 113 80 121 3 8 25 47 48 86 129 219 239 586 283 944 10 87 12 342 3 336 -4 -2 -7 16 -6 40 0 24 -1 42 -4 40 -2 -3 -14 4 -25 15 -17 15 -18 22 -8 32 10 10 11 8 6 -5 -4 -11 -2 -18 4 -18 6 0 11 5 11 11 0 5 4 8 9 4 6 -3 7 6 2 22 -4 16 -6 34 -4 41 3 6 0 12 -7 12 -6 0 -8 -4 -5 -10 3 -5 1 -10 -5 -10 -7 0 -9 8 -5 19 3 11 8 29 10 41 4 21 3 21 -14 6 -17 -15 -31 -13 -31 5 0 5 7 5 17 2 11 -4 14 -3 9 5 -4 7 -1 12 8 12 9 0 16 5 16 11 0 6 -7 8 -16 5 -13 -5 -14 -3 -7 6 6 7 10 24 8 38 -1 14 -3 31 -4 38 -1 10 -4 10 -15 0 -10 -9 -11 -15 -2 -20 8 -6 8 -8 -1 -8 -7 0 -13 -7 -13 -15 0 -8 -4 -15 -10 -15 -5 0 -10 -4 -10 -10 0 -5 7 -7 15 -4 8 4 15 1 15 -5 0 -6 -5 -11 -11 -11 -6 0 -9 -22 -7 -60 2 -46 6 -60 18 -60 10 0 11 -3 4 -8 -12 -8 -26 -55 -14 -47 4 3 3 -6 -3 -20 -7 -14 -22 -28 -35 -32 -14 -3 -21 -11 -18 -19 3 -8 1 -14 -4 -14 -18 0 -10 32 9 37 11 3 21 13 24 22 3 15 -3 17 -40 15 -25 -1 -48 -5 -51 -9 -3 -3 10 -4 31 -2 20 2 37 1 37 -3 0 -12 -27 -20 -51 -15 -12 2 -30 0 -40 -5 -12 -7 -20 -7 -24 0 -3 5 0 10 7 10 18 0 19 47 2 54 -8 3 -14 1 -14 -3 0 -5 6 -12 13 -14 7 -3 5 -6 -5 -6 -10 -1 -18 6 -18 15 0 8 -5 12 -11 9 -16 -11 -59 -13 -59 -4 0 5 -7 6 -15 3 -8 -4 -15 -1 -15 5 0 6 -7 11 -16 11 -26 0 9 -28 42 -34 16 -2 31 -5 34 -5 13 -3 -28 -21 -47 -21 -16 0 -23 -6 -23 -20 0 -11 4 -20 8 -20 4 0 8 -10 9 -22 1 -16 -4 -11 -17 17 -13 26 -15 42 -8 46 7 5 7 12 -1 25 -9 17 -10 17 -11 2 0 -10 -5 -18 -11 -18 -5 0 -8 4 -5 9 4 5 3 11 -1 13 -13 5 -63 110 -57 119 2 4 11 6 19 2 8 -3 15 0 15 6 0 6 -15 11 -32 12 l-33 1 30 14 c20 10 23 13 9 11 -12 -3 -28 -1 -35 4 -10 6 -8 9 8 9 30 0 39 19 17 38 -17 16 -17 16 -5 0 15 -20 16 -20 -21 -22 -16 -1 -28 3 -28 10 0 7 -4 14 -9 16 -5 2 -31 33 -58 70 -84 115 -274 316 -393 415 -48 40 -170 128 -197 142 -13 6 -20 17 -17 25 3 8 0 17 -7 22 -8 4 -10 3 -5 -4 12 -20 -9 -13 -77 25 -37 20 -63 41 -60 46 4 6 0 8 -9 4 -9 -3 -24 1 -35 8 -10 9 -13 14 -5 15 18 0 27 -4 25 -12 -2 -4 4 -5 12 -2 12 5 13 8 0 20 -10 10 -20 12 -39 4 -22 -8 -44 -1 -141 45 -63 30 -115 57 -115 60 0 3 15 4 33 2 17 -2 24 -2 15 0 -10 2 -18 12 -18 21 0 12 3 13 8 5 9 -14 52 -6 52 9 0 5 -4 7 -9 4 -5 -3 -11 3 -14 14 -3 11 -1 20 4 20 5 0 9 -4 9 -10 0 -13 37 -13 45 0 4 6 10 8 15 5 14 -9 60 17 60 33 0 13 -3 12 -19 -2 -12 -11 -21 -14 -26 -7 -3 6 1 11 9 11 9 0 16 5 16 11 0 6 -8 8 -17 5 -15 -5 -15 -4 1 9 19 15 19 15 -1 15 -12 0 -23 -6 -26 -12 -3 -7 -4 -3 -4 8 1 15 6 20 16 16 13 -5 13 -4 1 9 -8 9 -25 13 -42 11 -17 -3 -28 0 -28 7 0 7 6 11 13 10 25 -3 50 1 44 8 -4 3 2 13 14 21 11 8 23 11 27 7 4 -3 -1 -11 -10 -16 -20 -11 -14 -34 10 -44 14 -5 14 -4 -1 13 -16 18 -16 19 8 32 28 15 23 32 -8 29 -27 -2 -57 10 -57 23 0 5 4 6 10 3 7 -4 7 3 0 19 -6 16 -6 26 0 26 13 0 25 -23 22 -42 -3 -14 4 -18 30 -18 24 0 29 3 18 9 -8 6 -18 7 -22 5 -4 -3 -5 2 -2 10 3 9 2 16 -4 16 -17 0 -23 31 -8 46 16 15 30 19 22 6 -2 -4 4 -9 15 -9 15 -1 9 7 -21 28 -24 18 -38 34 -34 41 5 7 2 9 -9 5 -8 -3 -21 1 -28 9 -11 13 -10 15 2 14 29 -5 43 2 19 9 -32 9 -62 2 -53 -13 3 -6 -3 -2 -14 9 -11 11 -18 24 -15 30 3 5 7 4 10 -3 5 -15 38 -16 47 -2 4 6 10 8 15 5 4 -3 15 -2 24 1 11 4 13 11 6 29 -5 13 -6 26 -2 31 4 4 2 4 -4 1 -6 -4 -9 -18 -6 -32 3 -16 0 -25 -8 -25 -7 0 -10 7 -6 15 3 8 1 15 -4 15 -5 0 -7 8 -4 18 5 14 4 15 -5 2 -7 -10 -11 -11 -11 -2 0 6 -8 12 -17 12 -15 -1 -15 -3 5 -19 28 -24 28 -29 -1 -27 -17 1 -24 7 -23 21 1 14 -4 19 -16 17 -10 -2 -18 2 -18 8 0 6 5 8 10 5 6 -3 10 0 10 7 0 9 3 9 10 -2 8 -12 10 -11 10 6 0 18 5 21 30 19 17 -1 33 2 37 8 3 6 1 7 -5 3 -7 -4 -12 -2 -12 4 0 6 -4 9 -9 6 -5 -3 -15 2 -22 11 -10 11 -10 14 -2 9 7 -4 21 -2 30 4 17 11 17 11 -1 6 -13 -5 -17 -2 -12 9 6 17 -9 21 -19 5 -3 -5 -12 -10 -18 -9 -8 0 -8 2 1 6 10 4 10 8 1 19 -7 8 -8 18 -4 22 4 4 10 1 12 -5 3 -7 12 -13 21 -13 14 0 14 2 3 9 -7 5 -11 13 -7 19 3 5 -1 15 -9 22 -8 7 -15 9 -15 5 0 -4 -7 -2 -15 5 -8 7 -30 14 -47 16 -18 2 -34 8 -37 13 -3 4 -13 10 -21 13 -10 3 -8 6 7 10 14 4 21 2 20 -5 -1 -6 9 -13 22 -15 15 -2 21 0 17 7 -11 17 5 13 26 -6 12 -11 18 -12 18 -3 0 9 7 7 26 -5 15 -9 23 -12 20 -6 -4 6 0 11 9 11 9 0 13 -4 10 -10 -3 -5 -2 -10 4 -10 5 0 15 8 21 18 9 15 10 14 5 -5 -4 -14 -2 -23 4 -23 6 0 11 5 11 12 0 6 7 3 15 -8 13 -16 16 -17 25 -4 6 10 10 11 10 3 0 -7 7 -10 17 -6 10 4 14 2 10 -4 -5 -7 0 -9 13 -6 16 4 18 9 9 19 -13 16 -4 34 17 34 8 0 12 -5 9 -10 -4 -6 -11 -8 -16 -5 -5 4 -9 1 -9 -4 0 -6 7 -11 16 -11 8 0 12 -4 9 -10 -3 -5 0 -8 7 -5 14 6 18 55 5 55 -5 0 -5 5 -1 11 3 6 1 15 -6 19 -11 7 -10 11 2 24 9 8 18 13 20 11 3 -3 5 2 5 9 0 18 -89 67 -202 114 -203 83 -371 106 -560 77 -61 -10 -127 -26 -148 -37 -22 -11 -46 -17 -55 -13 -9 3 -13 3 -9 -1 4 -4 -32 -27 -80 -50 -99 -49 -96 -48 -88 -34 3 6 1 10 -6 10 -6 0 -9 8 -6 19 3 11 -1 22 -9 25 -8 3 -11 0 -7 -10 4 -10 0 -12 -13 -7 -12 4 -15 3 -10 -5 7 -12 -4 -16 -36 -13 -12 2 -16 -3 -12 -12 3 -8 -2 -17 -11 -21 -10 -4 -14 -2 -9 6 4 6 0 16 -9 23 -9 6 -17 18 -19 26 -2 8 -11 20 -21 27 -9 7 -14 18 -11 24 4 6 2 8 -4 4 -6 -3 -13 -2 -17 4 -9 15 23 24 40 10 7 -6 11 -19 8 -27 -4 -11 -2 -14 5 -9 7 4 12 2 12 -6 0 -10 2 -10 9 1 13 20 -35 61 -70 61 -29 0 -46 14 -29 25 5 3 10 3 10 -2 0 -4 17 -9 38 -10 28 -1 32 1 17 7 -18 8 -18 9 -2 9 10 1 16 5 12 11 -3 5 -12 7 -20 3 -8 -3 -15 0 -15 6 0 6 -10 11 -22 10 l-23 0 23 -9 c30 -12 28 -24 -2 -16 -14 3 -28 1 -31 -4 -4 -6 -11 -8 -16 -4 -5 3 -7 10 -4 15 4 5 3 9 -2 10 -4 0 -16 2 -25 4 -10 2 -18 -1 -18 -6 0 -5 7 -9 16 -9 14 0 14 -3 4 -15 -9 -11 -17 -12 -23 -6 -7 7 -17 7 -30 0 -12 -7 -17 -7 -13 -1 3 6 0 12 -6 15 -7 2 -10 8 -6 12 4 4 14 2 23 -5 8 -7 16 -10 16 -6 1 3 2 10 3 16 0 5 9 19 19 30 10 12 16 27 13 33 -3 8 -5 7 -5 -2 -1 -18 -31 6 -31 25 0 8 -5 14 -11 14 -6 0 -9 -7 -6 -14 6 -15 -28 -33 -48 -27 -5 2 -30 7 -54 11 -38 6 -42 5 -27 -6 10 -7 27 -11 38 -9 27 6 44 -5 27 -16 -10 -6 -11 -9 -1 -9 6 0 12 -7 12 -16 0 -8 -4 -13 -9 -10 -5 3 -8 -9 -6 -27 3 -39 -10 -67 -31 -67 -14 0 -14 -2 0 -16 9 -8 16 -21 16 -29 0 -17 20 -24 45 -14 19 7 19 8 -1 8 -26 1 -56 32 -36 38 6 3 12 11 12 19 0 8 4 14 10 14 5 0 7 -7 4 -15 -4 -8 -1 -15 5 -15 6 0 11 -5 11 -11 0 -8 -4 -8 -14 0 -10 8 -16 9 -21 1 -5 -8 7 -12 31 -9 4 0 10 -5 15 -12 10 -17 -5 -35 -36 -43 -14 -4 -25 -14 -25 -22 0 -11 6 -15 20 -11 17 4 19 1 16 -19 -3 -15 -1 -22 5 -18 6 3 8 8 5 11 -3 4 3 14 15 24 15 13 16 19 7 23 -10 5 -10 7 0 12 6 3 12 12 12 19 0 8 10 14 23 13 47 -2 57 2 50 18 -5 14 -3 13 15 -2 23 -19 29 -30 13 -19 -6 3 -25 -1 -43 -9 l-33 -15 32 5 c17 2 35 0 38 -6 3 -6 -4 -10 -16 -10 -34 0 -16 -11 20 -12 32 -1 44 -17 14 -19 -23 -2 -25 -1 -43 5 -8 3 -21 2 -29 -3 -16 -11 -7 -47 15 -55 12 -5 15 -2 10 10 -5 12 -1 14 17 9 12 -4 30 -9 40 -12 9 -2 15 -9 12 -14 -6 -9 8 -13 34 -10 7 2 10 -2 7 -7 -3 -6 -2 -12 3 -14 5 -1 3 -9 -5 -16 -11 -10 -14 -10 -14 2 0 8 -9 18 -20 21 -11 3 -20 13 -20 21 0 21 -30 14 -46 -11 -12 -19 -11 -21 9 -22 15 -2 18 0 8 6 -10 7 -11 9 -1 13 13 4 60 -32 60 -46 0 -17 -60 -67 -72 -60 -7 4 -10 4 -6 -1 4 -4 3 -16 -3 -27 -7 -13 -17 -17 -32 -13 -16 5 -18 4 -8 -3 19 -14 5 -32 -24 -30 -17 2 -21 6 -14 14 10 13 -9 24 -39 24 -14 0 -15 -2 -2 -9 8 -6 18 -7 22 -5 4 3 5 -2 2 -10 -5 -14 -8 -14 -21 0 -9 8 -23 12 -31 9 -9 -3 -13 -3 -9 1 4 4 -1 13 -11 21 -15 13 -15 13 5 4 12 -6 24 -11 26 -11 9 0 14 49 5 54 -5 2 -3 3 4 2 7 -2 12 -14 11 -27 -1 -13 1 -18 3 -11 3 6 9 10 13 7 4 -2 7 9 6 25 -1 24 1 28 12 18 11 -8 12 -7 7 6 -3 9 -14 16 -23 17 -10 0 -11 2 -3 6 18 7 15 20 -8 26 -11 3 -20 11 -19 19 0 10 2 10 6 0 4 -10 8 -10 19 -1 15 13 20 34 5 25 -15 -10 -40 5 -35 19 3 7 0 16 -7 21 -7 4 -10 3 -6 -3 4 -6 -1 -17 -11 -26 -15 -14 -23 -14 -55 -3 -20 7 -40 16 -44 21 -5 4 -2 4 6 0 11 -6 13 -4 8 9 -4 10 -7 20 -7 22 0 2 -7 4 -15 4 -9 0 -12 -6 -9 -17 5 -14 4 -15 -4 -4 -6 8 -8 20 -5 28 5 11 10 11 30 -2 13 -9 30 -14 36 -11 7 2 5 5 -4 5 -9 1 -20 8 -23 17 -4 11 -13 14 -30 10 -14 -3 -26 -1 -28 5 -2 6 -14 2 -28 -10 -21 -17 -23 -22 -10 -30 8 -6 17 -8 19 -5 3 3 0 9 -8 13 -10 6 -9 10 4 15 13 5 16 1 13 -22 -2 -20 1 -26 12 -24 8 2 12 0 7 -4 -4 -4 -18 -9 -30 -11 -15 -2 -18 0 -9 6 10 6 5 10 -17 14 -31 7 -42 31 -18 40 8 4 7 6 -3 6 -14 1 -31 24 -46 64 -8 21 -33 22 -40 2 -9 -22 -23 -18 -17 5 3 11 9 20 14 20 5 0 4 8 -2 19 -7 10 -9 27 -5 37 6 16 8 16 16 4 6 -9 6 -16 0 -18 -22 -8 -8 -19 17 -14 21 4 25 2 20 -12 -4 -10 -1 -16 8 -16 8 0 15 -5 15 -11 0 -5 -4 -7 -10 -4 -5 3 -10 2 -10 -3 0 -14 27 -22 27 -9 0 7 2 19 4 27 2 8 -2 14 -9 12 -8 -1 -11 2 -7 8 3 6 11 8 16 5 5 -4 9 3 9 14 0 12 -3 20 -7 20 -19 -3 -23 2 -13 21 9 16 8 18 -5 14 -8 -3 -13 -10 -10 -14 6 -9 -25 -23 -34 -15 -3 3 1 10 8 14 9 6 4 11 -17 19 -17 6 -34 7 -38 4 -5 -4 -2 1 5 11 8 9 11 20 7 24 -3 3 -6 1 -6 -5 0 -7 -3 -11 -7 -11 -5 1 -15 1 -23 0 -12 -1 -13 -3 -1 -10 8 -5 9 -11 3 -15 -6 -3 -13 -2 -17 4 -3 5 -11 10 -17 10 -7 0 -6 -5 1 -14 10 -12 7 -14 -19 -11 -28 4 -31 2 -28 -18 2 -14 10 -21 20 -21 10 1 15 -2 12 -7 -14 -23 -58 9 -48 35 3 9 1 16 -6 16 -6 0 -9 -4 -6 -9 3 -5 0 -11 -7 -14 -10 -4 -14 5 -15 31 0 21 3 30 6 22 4 -8 16 -16 27 -16 11 -1 28 -5 38 -9 17 -7 18 -6 6 13 -8 13 -20 20 -30 17 -18 -6 -36 12 -35 34 1 8 6 16 13 18 8 3 11 -3 8 -16 -2 -12 1 -21 9 -21 13 0 14 23 1 52 -8 19 -55 -25 -220 -207 -105 -114 -96 -104 -130 -150 -34 -46 -50 -65 -85 -104 -36 -40 -70 -82 -159 -199 -97 -125 -279 -338 -319 -372 -28 -25 -52 -29 -52 -9 0 4 7 6 15 3 11 -5 13 -2 9 10 -5 12 -10 13 -25 5 -24 -13 -24 -8 2 22 16 19 22 21 29 9 5 -8 6 -18 3 -24 -3 -5 -1 -6 5 -2 9 5 9 13 2 26 -9 17 3 33 82 114 124 125 239 248 261 277 17 23 17 24 0 32 -14 6 -13 6 5 3 15 -3 26 2 34 17 6 12 21 30 32 41 l21 19 -31 -5 c-20 -3 -31 0 -31 8 0 9 12 11 34 8 31 -4 33 -2 19 11 -16 17 -30 20 -21 5 3 -6 -1 -7 -10 -3 -12 4 -13 8 -5 13 16 10 3 30 -18 29 -15 -1 -15 -2 1 -6 17 -4 16 -6 -4 -24 -12 -10 -18 -19 -13 -19 5 0 2 -5 -6 -10 -13 -9 -13 -10 0 -10 13 0 13 -1 0 -10 -13 -9 -13 -10 0 -11 8 -1 18 -1 23 0 4 0 7 -6 7 -15 0 -13 -3 -14 -13 -5 -9 7 -17 7 -24 0 -7 -7 -10 -2 -9 17 0 15 -5 29 -13 32 -10 3 -12 -3 -6 -27 4 -20 3 -31 -5 -31 -6 0 -8 5 -5 10 3 6 1 10 -5 10 -7 0 -10 7 -6 15 3 8 2 14 -2 13 -12 -2 -42 14 -42 23 0 5 12 3 27 -4 20 -9 27 -9 30 0 3 7 12 9 21 6 9 -3 14 -3 10 2 -7 7 -38 11 -106 14 -14 1 -26 10 -32 26 -5 14 -12 25 -14 25 -3 0 -3 -6 0 -14 4 -11 -1 -14 -25 -11 -19 2 -37 -2 -46 -11 -12 -13 -19 -14 -30 -4 -8 7 -15 19 -15 26 0 8 -4 14 -10 14 -16 0 -12 -21 8 -39 19 -17 36 -51 25 -51 -3 0 -12 8 -19 17 -7 10 -16 14 -20 10 -5 -4 -2 -12 5 -16 9 -6 10 -11 2 -15 -21 -14 -33 5 -17 28 12 19 12 23 1 23 -8 0 -12 -4 -9 -8 2 -4 0 -10 -6 -14 -5 -3 -8 -22 -6 -41 4 -27 2 -33 -8 -25 -8 7 -21 4 -41 -9 -17 -11 -25 -20 -18 -20 6 0 15 5 18 10 8 13 35 13 35 0 0 -6 -11 -15 -25 -20 -32 -12 -32 -24 0 -18 13 3 22 1 19 -3 -3 -5 -21 -8 -40 -6 -34 2 -44 11 -21 20 7 3 4 6 -6 6 -10 1 -16 5 -13 10 10 16 -5 40 -21 34 -12 -5 -12 -7 -1 -15 10 -7 10 -11 1 -15 -7 -2 -13 -9 -13 -14 0 -6 4 -8 9 -4 5 3 13 1 16 -5 8 -13 -40 -9 -52 5 -5 4 -2 5 6 0 11 -7 13 -2 8 23 -4 21 -3 32 5 32 6 0 9 3 5 6 -3 3 -16 -1 -29 -10 -18 -13 -19 -16 -5 -16 24 0 21 -15 -5 -28 -13 -6 -17 -11 -10 -11 6 -1 12 -6 12 -12 0 -8 -4 -8 -14 1 -8 6 -12 18 -9 26 3 8 1 14 -5 14 -5 0 -12 -7 -16 -15 -6 -16 -36 -21 -36 -6 0 4 -14 23 -31 41 -25 26 -29 34 -18 42 11 8 11 9 -1 5 -8 -2 -14 -9 -13 -15 2 -6 -4 -9 -12 -6 -8 4 -12 11 -8 18 4 6 -2 4 -12 -4 -10 -8 -16 -10 -12 -3 14 23 -16 25 -46 2 -29 -21 -46 -34 -96 -79 -44 -39 -89 -68 -96 -62 -5 4 -5 2 -2 -5 7 -11 -100 -95 -140 -110 -10 -4 -24 -13 -31 -20 -16 -16 -42 -17 -42 -2 0 5 4 8 8 5 4 -2 8 4 8 15 0 20 -30 27 -41 8 -4 -6 -14 -8 -22 -5 -11 5 -13 2 -9 -9 3 -9 2 -13 -4 -10 -22 14 -6 32 67 74 116 68 204 143 399 344 183 188 295 312 475 526 145 174 384 413 510 512 175 137 345 232 534 299 l60 21 0 637 c-1 350 1 647 3 659 3 17 12 22 44 25 22 2 41 1 43 -2 2 -4 30 -12 62 -19 32 -7 69 -17 82 -22 17 -7 27 -6 35 2 8 9 7 10 -3 4 -10 -6 -12 -4 -7 4 9 13 21 6 21 -12 0 -7 9 -13 20 -15 16 -3 17 -1 5 7 -8 6 -10 11 -4 11 10 0 59 -33 74 -50 6 -7 97 -50 168 -80 28 -12 52 -27 52 -32 0 -6 7 -8 15 -4 8 3 15 1 15 -3 0 -5 6 -11 14 -14 10 -4 12 0 9 14 -3 10 -8 19 -12 19 -3 0 -7 10 -7 23 -1 12 -7 51 -14 87 -17 93 -15 280 4 388 9 50 15 95 14 100 0 4 7 25 16 47 12 26 14 41 7 43 -6 2 -11 8 -11 13 0 6 4 8 9 4 5 -3 12 -1 16 5 3 5 -1 10 -9 10 -9 0 -16 6 -16 13 0 6 -5 4 -11 -5 -5 -10 -15 -18 -21 -18 -6 0 -6 6 2 15 9 11 10 19 2 27 -14 14 -33 1 -25 -18 3 -9 0 -14 -7 -12 -7 2 -15 -3 -17 -10 -3 -7 1 -10 10 -6 18 7 32 -12 16 -22 -7 -4 -9 -3 -5 4 9 15 -36 11 -52 -5 -13 -13 -68 -128 -103 -215 -19 -49 -20 -53 -41 -155 -7 -35 -16 -63 -20 -63 -4 0 -6 -6 -4 -12 1 -7 1 -10 -1 -6 -2 4 -11 4 -19 1 -12 -4 -12 -8 3 -19 16 -12 16 -13 2 -14 -17 0 -29 19 -29 46 0 8 6 11 18 7 9 -3 5 3 -10 15 -14 12 -31 22 -37 22 -6 0 -11 5 -11 10 0 8 6 8 17 1 14 -7 26 0 60 37 23 25 40 48 38 51 -3 2 -11 -4 -19 -14 -12 -17 -14 -17 -29 5 -15 22 -16 22 -14 2 0 -11 4 -19 8 -16 4 2 10 0 14 -6 3 -5 -1 -10 -10 -10 -9 0 -14 -4 -11 -8 11 -18 -12 -34 -35 -26 l-24 8 25 7 c21 6 21 7 5 8 -19 2 -19 2 -2 15 17 13 14 46 -4 46 -13 0 -11 -18 4 -23 8 -4 7 -6 -3 -6 -8 0 -24 11 -34 26 -11 14 -15 23 -9 20 12 -8 22 12 16 30 -4 10 -10 10 -25 2 -16 -9 -24 -7 -39 8 -19 18 -19 19 0 19 11 0 17 -5 14 -13 -3 -7 -1 -13 5 -13 6 0 22 21 36 46 29 53 31 58 14 47 -16 -10 -107 -13 -112 -4 -3 4 18 7 46 7 28 0 53 4 55 10 2 7 -8 9 -28 6 -22 -3 -30 -1 -25 7 4 6 2 11 -3 11 -6 0 -11 -4 -11 -10 0 -5 -5 -10 -12 -10 -6 0 -4 8 6 19 20 22 73 27 55 5 -10 -12 -9 -13 5 -8 9 3 16 11 16 16 0 6 7 8 15 4 8 -3 15 0 15 6 0 7 -21 9 -68 5 -38 -3 -75 -2 -83 3 -9 6 -22 4 -35 -5 -25 -16 -39 -8 -22 12 10 12 7 13 -18 7 l-29 -7 24 22 c13 11 19 21 13 21 -14 0 -16 36 -3 44 5 4 11 0 14 -6 2 -7 8 -9 13 -5 5 5 1 14 -9 22 -16 11 -16 13 -2 19 9 3 24 -2 33 -11 16 -16 16 -16 -3 -9 -12 4 -16 4 -10 -2 6 -5 24 -12 40 -16 27 -6 28 -5 13 7 -10 8 -18 20 -18 26 0 7 -4 10 -9 7 -5 -3 -11 3 -14 13 -7 26 28 39 68 26 12 -4 8 2 -10 14 -16 11 -25 21 -19 21 17 0 10 41 -9 52 -13 7 -17 5 -17 -7 0 -9 5 -13 10 -10 6 3 10 -1 10 -10 0 -10 -5 -13 -12 -9 -8 5 -9 0 -6 -14 4 -14 2 -22 -7 -22 -7 0 -15 -4 -17 -9 -5 -15 -63 -18 -63 -3 0 6 5 11 10 10 5 -2 9 -7 7 -11 -1 -5 2 -5 8 -2 6 4 9 13 6 20 -3 8 6 18 22 24 21 7 22 10 8 10 -20 1 -20 1 0 15 10 8 16 18 11 22 -4 4 -7 2 -7 -4 0 -15 -37 -16 -46 -1 -4 7 0 9 14 5 14 -5 21 -1 25 14 7 28 -21 39 -38 16 -12 -15 -13 -15 -19 0 -4 10 -12 14 -24 9 -13 -5 -14 -4 -5 6 9 9 16 9 26 1 16 -14 28 -6 20 14 -3 8 0 14 7 14 6 0 8 -4 5 -10 -9 -14 18 -12 35 3 12 10 12 9 1 -5 -10 -13 -10 -18 -2 -18 7 0 11 -6 9 -14 -2 -8 -1 -15 2 -15 3 0 16 -4 30 -9 21 -8 26 -7 28 7 3 30 7 46 15 58 5 7 0 10 -15 6 -19 -4 -20 -3 -8 7 12 9 8 10 -17 5 -29 -6 -33 -4 -33 14 0 11 8 25 18 31 15 10 14 11 -5 7 -13 -3 -23 -1 -23 4 0 5 -10 9 -22 10 -16 0 -18 2 -8 6 8 3 18 11 22 16 9 15 -3 39 -17 33 -8 -3 -16 2 -19 10 -3 8 -11 14 -18 14 -11 0 -11 -2 0 -8 7 -5 10 -16 6 -25 -6 -17 -23 -23 -25 -9 -5 46 -16 63 -29 42 -8 -12 -10 -9 -10 10 0 19 -3 21 -9 11 -5 -8 -7 -21 -4 -30 4 -10 0 -9 -10 4 -11 15 -13 23 -4 33 6 8 -5 5 -26 -7 -22 -12 -39 -16 -42 -10 -4 5 -16 7 -27 3 -16 -5 -19 -3 -12 7 6 10 3 10 -11 -1 -17 -14 -18 -13 -12 3 3 9 2 17 -4 17 -6 0 -7 5 -4 10 4 7 14 6 28 -2 12 -7 28 -11 35 -10 6 2 12 -3 12 -9 0 -7 3 -9 8 -5 7 7 8 11 11 37 0 5 7 7 14 3 6 -4 9 -3 5 1 -12 12 -58 15 -58 4 0 -6 4 -8 9 -4 5 3 12 1 15 -4 9 -14 -29 -19 -42 -5 -14 15 -16 28 -4 20 5 -3 9 1 9 8 0 7 -6 13 -13 13 -7 0 -11 -3 -9 -7 2 -4 -14 -23 -35 -43 -22 -20 -41 -33 -43 -29 -7 15 -1 37 10 35 7 -2 10 9 8 27 -2 17 0 30 5 30 6 0 10 -12 10 -26 0 -23 1 -24 16 -9 15 14 14 18 -10 42 -23 23 -31 23 -27 1 0 -5 -9 -8 -21 -9 -18 0 -19 -2 -7 -7 13 -5 14 -13 8 -30 -5 -13 -13 -21 -18 -18 -5 3 -11 -1 -15 -9 -3 -10 1 -15 12 -16 13 0 13 -2 3 -6 -8 -3 -20 2 -27 12 -7 9 -17 14 -23 10 -16 -9 -13 4 3 21 8 7 16 10 18 4 2 -6 9 -6 18 0 13 8 12 11 -5 24 -11 9 -15 16 -10 16 6 0 11 10 12 23 0 12 -1 17 -3 11 -6 -14 -44 -6 -44 8 0 6 6 8 14 5 9 -4 12 2 10 21 -1 15 -8 28 -13 30 -6 2 -9 8 -6 13 4 5 -1 6 -9 3 -20 -8 -20 -20 -2 -31 11 -6 7 -14 -15 -36 -16 -15 -26 -21 -23 -13 4 10 1 16 -9 16 -8 0 -17 7 -21 15 -3 8 -1 15 4 15 6 0 10 -4 10 -10 0 -5 5 -10 11 -10 5 0 7 5 4 10 -4 6 -1 18 6 26 6 8 9 17 5 21 -3 3 -6 1 -6 -5 0 -7 -5 -12 -11 -12 -5 0 -7 5 -4 10 3 6 2 10 -4 10 -5 0 -13 -4 -16 -10 -11 -17 -25 -11 -25 11 0 13 -4 18 -12 13 -7 -4 -5 2 5 14 12 12 25 18 35 15 10 -4 14 -3 10 1 -3 4 -14 9 -25 10 -10 2 -18 11 -18 21 0 9 -11 25 -25 34 -14 9 -21 11 -16 4 4 -8 2 -13 -8 -13 -10 0 -13 6 -10 15 7 17 -4 19 -25 6 -9 -6 -22 -6 -32 -1 -9 5 -19 6 -23 3 -3 -4 -15 -7 -26 -8 -19 -2 -19 -1 -2 15 10 10 20 13 23 7 4 -6 9 -5 13 1 3 6 1 14 -4 17 -8 5 -6 13 6 26 9 10 13 19 8 19 -5 0 -2 5 6 10 12 8 12 10 -5 10 -17 0 -17 2 -5 10 13 9 13 10 0 11 -8 1 -21 2 -29 3 -8 0 -16 7 -19 15 -3 10 0 12 11 8 8 -3 18 0 21 8 7 18 -24 8 -43 -14 -12 -14 -12 -14 -7 4 8 28 -8 49 -30 41 -18 -6 -18 -5 0 9 10 8 23 12 29 8 6 -4 7 -1 2 6 -4 7 -16 11 -26 8 -10 -3 -22 0 -26 5 -3 7 -1 8 5 4 7 -4 12 -1 12 8 0 9 5 16 10 16 6 0 10 5 10 11 0 5 -5 7 -12 3 -6 -4 -8 -3 -5 3 3 5 -2 15 -13 23 -10 7 -16 19 -13 27 4 11 -1 12 -21 7 -19 -4 -27 -2 -32 10 -3 9 -11 16 -18 16 -6 0 2 -12 17 -25 27 -24 27 -25 5 -22 -13 2 -24 9 -24 15 -1 7 -2 14 -3 17 0 3 -11 1 -23 -5 l-23 -11 22 19 c12 11 20 22 17 25 -3 2 3 8 13 11 9 4 14 4 11 0 -8 -8 16 -34 32 -34 6 0 9 4 6 9 -3 5 1 11 9 14 10 4 12 1 8 -10 -4 -10 -2 -14 4 -10 6 4 13 4 16 0 2 -5 2 -3 1 4 -2 7 1 15 6 18 6 4 10 1 10 -5 0 -6 4 -9 9 -6 5 4 23 -6 40 -20 17 -14 31 -21 31 -15 0 6 -4 11 -10 11 -5 0 -10 7 -10 15 0 8 -4 16 -10 16 -5 1 -15 2 -20 3 -6 0 -15 7 -20 15 -7 12 -13 13 -35 3 -31 -14 -35 -15 -35 -2 0 18 86 33 230 40 l145 7 -130 0 c-71 0 -141 -2 -155 -4z m-150 -128 c11 -13 10 -14 -4 -9 -9 3 -16 10 -16 15 0 13 6 11 20 -6z m-260 -129 c0 -8 -4 -17 -9 -21 -12 -7 -24 12 -16 25 9 15 25 12 25 -4z m395 -56 c3 -5 1 -10 -4 -10 -6 0 -11 5 -11 10 0 6 2 10 4 10 3 0 8 -4 11 -10z m35 -1 c0 -5 4 -8 8 -5 4 2 13 -4 20 -15 7 -11 8 -19 2 -19 -5 0 -10 5 -10 10 0 6 -6 10 -14 10 -8 0 -16 7 -20 15 -3 8 -1 15 4 15 6 0 10 -5 10 -11z m-50 -114 c0 -5 -5 -3 -10 5 -5 8 -10 20 -10 25 0 6 5 3 10 -5 5 -8 10 -19 10 -25z m146 -12 c0 -10 5 -17 12 -15 6 1 12 -6 12 -15 0 -21 -20 -55 -20 -35 0 6 -5 12 -11 12 -5 0 -7 -6 -3 -12 5 -9 2 -9 -9 1 -24 19 -21 24 8 18 17 -3 24 0 22 7 -2 6 -12 10 -22 8 -11 -2 -14 1 -9 9 4 8 3 10 -4 5 -7 -4 -12 -2 -12 5 0 8 -4 8 -15 -1 -11 -9 -19 -10 -26 -3 -8 8 -5 13 10 18 11 3 24 4 29 1 4 -2 14 -1 22 5 8 5 16 9 16 9 1 0 1 -8 0 -17z m52 -24 c-2 -3 3 -13 11 -22 17 -21 5 -22 -15 -2 -12 12 -12 15 -2 15 10 0 9 3 -2 11 -10 7 -11 9 -2 7 8 -2 12 -6 10 -9z m-93 -21 c-4 -13 -12 -27 -17 -33 -6 -6 -7 -3 -2 9 6 16 4 18 -9 13 -22 -8 -22 2 1 19 25 20 34 17 27 -8z m85 -48 c0 -5 -7 -7 -15 -4 -8 4 -15 8 -15 10 0 2 7 4 15 4 8 0 15 -4 15 -10z m140 -113 c11 -5 9 -6 -4 -4 -11 1 -21 9 -23 17 -3 10 -2 11 4 4 4 -6 15 -14 23 -17z m-69 -30 c-10 -9 -11 -8 -5 6 3 10 9 15 12 12 3 -3 0 -11 -7 -18z m73 4 c3 -4 -6 -6 -19 -3 -14 2 -25 6 -25 8 0 8 39 4 44 -5z m-39 -29 c-3 -3 -11 0 -18 7 -9 10 -8 11 6 5 10 -3 15 -9 12 -12z m-30 -32 c3 -6 -1 -7 -9 -4 -18 7 -21 14 -7 14 6 0 13 -4 16 -10z m190 -19 c-3 -6 -11 -11 -17 -11 -6 0 -6 6 2 15 14 17 26 13 15 -4z m-975 -27 c0 -14 -21 -19 -33 -7 -9 9 13 34 24 27 5 -3 9 -12 9 -20z m1244 -47 c-11 -6 -22 -15 -26 -21 -4 -6 -8 -7 -8 -2 0 16 32 46 43 39 5 -3 1 -10 -9 -16z m22 -48 c7 -12 -15 -31 -28 -23 -9 6 1 34 12 34 5 0 12 -5 16 -11z m-806 -65 c0 -17 -26 -19 -36 -3 -7 12 15 31 28 23 4 -3 8 -12 8 -20z m628 9 c5 -18 -28 -29 -38 -12 -5 7 -6 17 -3 22 7 12 35 5 41 -10z m247 -23 c3 -5 -3 -7 -12 -5 -10 2 -21 4 -25 4 -5 1 -8 5 -8 10 0 10 38 3 45 -9z m-15 -20 c12 -7 10 -9 -8 -7 -12 0 -22 5 -22 9 0 11 12 10 30 -2z m-110 -150 c8 -5 13 -10 10 -11 -33 -6 -47 -4 -43 8 6 15 13 16 33 3z m579 -78 c-5 -2 -6 -9 -3 -14 4 -7 2 -8 -5 -4 -6 4 -9 12 -6 17 4 5 1 9 -5 9 -6 0 -8 4 -5 10 4 6 11 5 20 -3 7 -6 9 -14 4 -15z m-604 -1 c-3 -6 -11 -11 -16 -11 -5 0 -4 6 3 14 14 16 24 13 13 -3z m32 -86 c0 -8 -4 -12 -9 -9 -5 3 -6 10 -3 15 9 13 12 11 12 -6z m67 0 c-4 -8 -8 -15 -10 -15 -2 0 -4 7 -4 15 0 8 4 15 10 15 5 0 7 -7 4 -15z m40 -10 c-4 -8 -14 -15 -23 -14 -10 0 -11 2 -3 6 6 2 10 9 6 14 -3 5 2 9 10 9 10 0 13 -6 10 -15z m-1679 -15 c0 -8 -8 -16 -17 -18 -13 -2 -18 3 -18 18 0 15 5 20 18 18 9 -2 17 -10 17 -18z m1635 -7 c0 -3 -7 -2 -16 1 -12 5 -15 2 -10 -10 5 -14 4 -15 -9 -4 -12 10 -13 15 -4 21 12 7 39 2 39 -8z m-140 -3 c0 -5 -5 -10 -11 -10 -5 0 -7 5 -4 10 3 6 8 10 11 10 2 0 4 -4 4 -10z m166 -25 c9 -8 17 -27 20 -42 5 -28 5 -28 -11 -6 -17 24 -60 27 -73 5 -7 -9 -12 -9 -27 1 -10 8 -15 19 -11 25 9 14 52 16 61 2 3 -5 12 -7 21 -3 11 4 12 9 3 19 -15 19 -1 18 17 -1z m91 -31 c-3 -3 -12 -4 -19 -1 -8 3 -5 6 6 6 11 1 17 -2 13 -5z m-1070 -88 c-4 -9 -11 -16 -17 -16 -17 0 -24 31 -9 41 18 11 34 -5 26 -25z m1068 -6 c3 -5 1 -10 -4 -10 -6 0 -11 5 -11 10 0 6 2 10 4 10 3 0 8 -4 11 -10z m-32 -13 c3 -8 -1 -14 -8 -14 -7 0 -11 6 -8 14 3 7 6 13 8 13 2 0 5 -6 8 -13z m60 -23 c9 -10 -4 -35 -15 -28 -6 4 -5 10 3 16 10 7 8 8 -9 5 -12 -3 -20 -1 -16 4 6 10 28 12 37 3z m-57 -19 c9 -8 11 -15 6 -15 -5 0 -15 7 -22 15 -7 8 -9 15 -6 15 4 0 14 -7 22 -15z m97 -82 c-7 -3 -9 -12 -6 -21 4 -14 3 -14 -5 -3 -12 17 -4 43 11 34 8 -5 8 -8 0 -10z m-3 -73 c0 -5 -2 -10 -4 -10 -3 0 -8 5 -11 10 -3 6 -1 10 4 10 6 0 11 -4 11 -10z m34 -26 c3 -8 2 -12 -4 -9 -6 3 -10 10 -10 16 0 14 7 11 14 -7z m-1174 -349 c0 -18 -19 -19 -42 -1 -19 14 -25 32 -8 21 6 -3 10 -1 10 5 0 8 6 8 20 0 11 -6 20 -17 20 -25z m690 -36 c11 -19 10 -20 -9 -9 -22 11 -29 30 -11 30 5 0 14 -9 20 -21z m-86 -5 c5 -14 4 -15 -9 -4 -17 14 -19 20 -6 20 5 0 12 -7 15 -16z m36 -24 c0 -5 -2 -10 -4 -10 -3 0 -8 5 -11 10 -3 6 -1 10 4 10 6 0 11 -4 11 -10z m35 0 c3 -5 1 -10 -4 -10 -6 0 -11 5 -11 10 0 6 2 10 4 10 3 0 8 -4 11 -10z m-3475 -45 c0 -8 -3 -16 -7 -18 -5 -3 -8 5 -8 18 0 13 3 21 8 18 4 -2 7 -10 7 -18z m-305 -5 c8 0 13 -9 12 -20 -1 -11 -8 -20 -15 -20 -8 0 -12 6 -9 15 4 8 2 17 -3 20 -6 4 -10 12 -9 18 0 9 2 9 6 0 2 -7 11 -13 18 -13z m245 -15 c0 0 -16 0 -34 0 -32 -1 -34 1 -18 15 15 14 18 14 34 1 10 -9 18 -16 18 -16z m3440 31 c0 -3 -4 -8 -10 -11 -5 -3 -10 -1 -10 4 0 6 5 11 10 11 6 0 10 -2 10 -4z m-3456 -52 c3 -8 2 -12 -4 -9 -6 3 -10 10 -10 16 0 14 7 11 14 -7z m-209 -34 c3 -5 1 -10 -4 -10 -6 0 -11 5 -11 10 0 6 2 10 4 10 3 0 8 -4 11 -10z m3225 -5 c0 -8 -4 -15 -10 -15 -5 0 -10 7 -10 15 0 8 5 15 10 15 6 0 10 -7 10 -15z m-3185 -5 c3 -5 -1 -10 -10 -10 -9 0 -13 5 -10 10 3 6 8 10 10 10 2 0 7 -4 10 -10z m75 0 c8 -5 11 -10 5 -10 -5 0 -17 5 -25 10 -8 5 -10 10 -5 10 6 0 17 -5 25 -10z m-157 -25 c-3 -9 -8 -14 -10 -11 -3 3 -2 9 2 15 9 16 15 13 8 -4z m232 5 c3 -6 -1 -7 -9 -4 -18 7 -21 14 -7 14 6 0 13 -4 16 -10z m-285 -14 c0 -3 -4 -8 -10 -11 -5 -3 -10 -1 -10 4 0 6 5 11 10 11 6 0 10 -2 10 -4z m-43 -26 c-1 -11 -5 -20 -9 -20 -10 0 -10 4 -2 24 8 22 13 20 11 -4z m297 -6 c3 -8 2 -12 -4 -9 -6 3 -10 10 -10 16 0 14 7 11 14 -7z m-29 -4 c3 -5 1 -10 -4 -10 -6 0 -11 5 -11 10 0 6 2 10 4 10 3 0 8 -4 11 -10z m-285 -30 c0 -5 -2 -10 -4 -10 -3 0 -8 5 -11 10 -3 6 -1 10 4 10 6 0 11 -4 11 -10z m17 -74 c-3 -7 0 -19 6 -25 9 -9 8 -11 -5 -6 -10 4 -18 9 -18 10 0 9 13 35 17 35 3 0 3 -6 0 -14z m78 4 c3 -5 1 -10 -4 -10 -6 0 -11 5 -11 10 0 6 2 10 4 10 3 0 8 -4 11 -10z m1509 -79 c-6 -6 -24 19 -24 34 1 6 7 1 15 -9 8 -11 12 -22 9 -25z m34 11 c6 -18 -15 -14 -22 4 -4 10 -1 14 6 12 6 -2 14 -10 16 -16z m-123 -30 c-3 -3 -11 0 -18 7 -9 10 -8 11 6 5 10 -3 15 -9 12 -12z m113 -40 c-16 -21 -30 -32 -42 -32 -6 0 -2 6 9 14 12 8 16 20 13 34 -5 19 -4 20 14 11 16 -9 17 -13 6 -27z m-708 18 c0 -5 -2 -10 -4 -10 -3 0 -8 5 -11 10 -3 6 -1 10 4 10 6 0 11 -4 11 -10z m70 0 c0 -5 -2 -10 -4 -10 -3 0 -8 5 -11 10 -3 6 -1 10 4 10 6 0 11 -4 11 -10z m600 4 c0 -8 -19 -13 -24 -6 -3 5 1 9 9 9 8 0 15 -2 15 -3z m-1240 -19 c10 -13 9 -15 -9 -15 -12 0 -21 6 -21 15 0 8 4 15 9 15 5 0 14 -7 21 -15z m445 4 c11 -16 1 -19 -13 -3 -7 8 -8 14 -3 14 5 0 13 -5 16 -11z m-815 -9 c0 -5 -4 -10 -10 -10 -5 0 -10 5 -10 10 0 6 5 10 10 10 6 0 10 -4 10 -10z m930 -12 c0 -6 -6 -5 -15 2 -8 7 -15 14 -15 16 0 2 7 1 15 -2 8 -4 15 -11 15 -16z m654 7 c3 -8 1 -15 -4 -15 -6 0 -10 7 -10 15 0 8 2 15 4 15 2 0 6 -7 10 -15z m-717 -10 c0 -8 -4 -12 -9 -9 -5 3 -6 10 -3 15 9 13 12 11 12 -6z m102 2 c8 -10 7 -14 -2 -14 -8 0 -14 6 -14 14 0 7 1 13 2 13 2 0 8 -6 14 -13z m594 -20 c4 3 7 2 7 -4 0 -6 -7 -14 -16 -17 -8 -3 -12 -2 -9 3 3 5 1 12 -5 16 -5 3 -10 12 -10 18 0 7 6 4 14 -5 7 -10 16 -15 19 -11z m-663 3 c0 -5 -2 -10 -4 -10 -3 0 -8 5 -11 10 -3 6 -1 10 4 10 6 0 11 -4 11 -10z m605 0 c-3 -5 -12 -10 -18 -10 -7 0 -6 4 3 10 19 12 23 12 15 0z m-40 -19 c-3 -6 -11 -11 -16 -11 -5 0 -4 6 3 14 14 16 24 13 13 -3z m140 -1 c3 -6 -1 -7 -9 -4 -18 7 -21 14 -7 14 6 0 13 -4 16 -10z m-117 -21 c-3 -13 34 -22 42 -10 3 5 11 3 17 -5 8 -8 9 -15 3 -19 -6 -3 -10 0 -10 7 0 9 -3 9 -10 -2 -9 -13 -11 -13 -20 0 -5 8 -10 10 -10 5 0 -6 -10 -11 -22 -12 -13 0 -18 1 -12 3 7 3 10 14 7 24 -3 11 0 20 6 20 6 0 10 -5 9 -11z m295 -51 c9 -31 2 -33 -11 -3 -6 14 -8 25 -3 25 5 0 11 -10 14 -22z m-213 2 c0 -5 -5 -10 -11 -10 -5 0 -7 5 -4 10 3 6 8 10 11 10 2 0 4 -4 4 -10z m23 -5 c-3 -9 -8 -14 -10 -11 -3 3 -2 9 2 15 9 16 15 13 8 -4z m-148 -5 c3 -6 -1 -7 -9 -4 -18 7 -21 14 -7 14 6 0 13 -4 16 -10z m76 1 c-8 -5 -20 -7 -28 -4 -21 8 -15 13 15 13 20 0 23 -3 13 -9z m2179 -13 c0 -13 -23 -5 -28 10 -2 7 2 10 12 6 9 -3 16 -11 16 -16z m95 12 c-3 -5 -1 -10 4 -10 19 0 12 -39 -8 -50 -15 -7 -23 -6 -35 5 -20 20 -2 65 26 65 11 0 16 -4 13 -10z m-767 -17 c-4 -22 -22 -20 -26 1 -2 10 3 16 13 16 10 0 15 -7 13 -17z m-2717 -26 c-1 -12 -15 -9 -19 4 -3 6 1 10 8 8 6 -3 11 -8 11 -12z m804 -7 c3 -5 -1 -10 -9 -10 -9 0 -16 5 -16 10 0 6 4 10 9 10 6 0 13 -4 16 -10z m5 -30 c0 -5 -7 -10 -15 -10 -8 0 -15 5 -15 10 0 6 7 10 15 10 8 0 15 -4 15 -10z m29 -33 c0 -9 -2 -8 -6 1 -2 6 -10 9 -15 6 -7 -4 -8 -2 -4 5 9 13 26 5 25 -12z m61 13 c8 -5 11 -10 5 -10 -5 0 -17 5 -25 10 -8 5 -10 10 -5 10 6 0 17 -5 25 -10z m50 -9 c0 -5 -7 -11 -14 -14 -10 -4 -13 -1 -9 9 6 15 23 19 23 5z m235 -1 c-3 -5 -14 -10 -23 -9 -14 0 -13 2 3 9 27 11 27 11 20 0z m-329 -15 c-3 -8 0 -15 6 -15 6 0 9 -3 5 -6 -10 -11 -26 6 -20 21 3 8 7 15 10 15 3 0 3 -7 -1 -15z m179 5 c3 -5 1 -10 -4 -10 -6 0 -11 5 -11 10 0 6 2 10 4 10 3 0 8 -4 11 -10z m-134 -23 c-10 -9 -11 -8 -5 6 3 10 9 15 12 12 3 -3 0 -11 -7 -18z m109 15 c0 -5 -7 -9 -15 -9 -8 0 -12 4 -9 9 3 4 9 8 15 8 5 0 9 -4 9 -8z m-180 -14 c0 -4 -4 -8 -9 -8 -6 0 -12 4 -15 8 -3 5 1 9 9 9 8 0 15 -4 15 -9z m254 -24 c3 -8 2 -12 -4 -9 -6 3 -10 10 -10 16 0 14 7 11 14 -7z m-229 -4 c4 -6 -1 -7 -12 -4 -16 5 -16 4 1 -10 12 -9 15 -16 7 -16 -20 0 -43 27 -28 33 19 8 25 8 32 -3z m96 -23 c-10 -9 -11 -8 -5 6 3 10 9 15 12 12 3 -3 0 -11 -7 -18z m103 8 c3 -8 1 -15 -3 -15 -5 0 -11 7 -15 15 -3 8 -1 15 3 15 5 0 11 -7 15 -15z m-290 -7 c-3 -4 -9 -8 -15 -8 -5 0 -9 4 -9 8 0 5 7 9 15 9 8 0 12 -4 9 -9z m241 -8 c3 -6 -1 -7 -9 -4 -18 7 -21 14 -7 14 6 0 13 -4 16 -10z m92 4 c-3 -3 -12 -4 -19 -1 -8 3 -5 6 6 6 11 1 17 -2 13 -5z m107 -40 c24 -13 28 -35 10 -52 -8 -7 -14 -8 -14 -2 0 5 -7 10 -15 10 -10 0 -14 10 -13 35 1 20 4 32 7 28 3 -4 15 -13 25 -19z m501 -2 c-3 -3 -11 0 -18 7 -9 10 -8 11 6 5 10 -3 15 -9 12 -12z m1230 -92 c11 -17 -5 -32 -21 -19 -7 6 -11 15 -8 20 7 12 21 11 29 -1z m-1370 -250 c3 -5 1 -10 -4 -10 -6 0 -11 5 -11 10 0 6 2 10 4 10 3 0 8 -4 11 -10z m-1645 -8 c0 -13 -12 -22 -22 -16 -10 6 -1 24 13 24 5 0 9 -4 9 -8z m1870 -33 c0 -5 -7 -9 -15 -9 -15 0 -20 12 -9 23 8 8 24 -1 24 -14z m-1413 -115 c8 -21 -13 -42 -28 -27 -13 13 -5 43 11 43 6 0 13 -7 17 -16z m123 -94 c0 -25 -17 -35 -35 -20 -11 9 -12 17 -5 31 12 22 40 14 40 -11z m1618 -98 c2 -7 -3 -12 -12 -12 -9 0 -16 7 -16 16 0 17 22 14 28 -4z m-550 -83 c-2 -6 -8 -10 -13 -10 -5 0 -11 4 -13 10 -2 6 4 11 13 11 9 0 15 -5 13 -11z m-432 -60 c3 -6 1 -16 -5 -22 -9 -9 -14 -8 -21 3 -9 15 -4 30 10 30 5 0 12 -5 16 -11z m-496 -304 c0 -8 -4 -15 -10 -15 -5 0 -10 7 -10 15 0 8 5 15 10 15 6 0 10 -7 10 -15z m2807 -5 c-1 -11 -5 -20 -9 -20 -10 0 -10 4 -2 24 8 22 13 20 11 -4z m606 0 c-6 -24 -10 -25 -31 -3 -16 16 -16 16 0 10 10 -3 20 -2 23 3 10 16 13 11 8 -10z m-45 -18 c2 -7 -1 -12 -8 -12 -6 0 -9 4 -6 9 4 5 1 12 -4 14 -6 3 -5 4 2 3 6 -1 14 -8 16 -14z m-558 -22 c0 -5 -4 -10 -10 -10 -5 0 -10 5 -10 10 0 6 5 10 10 10 6 0 10 -4 10 -10z m185 -10 c-11 -4 -20 -11 -20 -17 0 -5 -8 -17 -17 -27 -10 -10 -18 -12 -18 -6 0 6 -6 8 -12 4 -8 -4 -10 -3 -5 2 5 5 14 9 20 9 5 0 12 6 15 14 3 8 0 11 -7 7 -6 -4 -11 -3 -11 2 0 15 9 19 43 19 25 1 28 -1 12 -7z m68 -26 c11 -11 -3 -24 -18 -18 -8 4 -12 10 -9 15 6 11 18 12 27 3z m417 -9 c17 10 19 -12 4 -31 -13 -15 -15 -16 -10 -2 2 9 -2 19 -10 22 -8 3 -14 -1 -14 -9 0 -10 -9 -14 -25 -13 -17 2 -24 7 -20 16 3 8 5 16 5 18 0 2 4 4 10 4 5 0 7 -8 3 -17 -4 -14 -1 -13 18 5 13 12 25 18 27 12 2 -6 8 -8 12 -5z m-115 -5 c3 -5 1 -10 -4 -10 -6 0 -11 5 -11 10 0 6 2 10 4 10 3 0 8 -4 11 -10z m-508 -6 c-3 -3 -12 -4 -19 -1 -8 3 -5 6 6 6 11 1 17 -2 13 -5z m658 -25 c-5 -16 -4 -19 5 -14 9 6 11 4 5 -5 -6 -10 -4 -12 9 -7 12 5 22 -2 36 -25 16 -27 17 -33 4 -46 -8 -8 -18 -11 -22 -8 -3 4 -2 10 4 14 7 5 7 14 -1 29 -7 13 -14 21 -17 18 -9 -10 -40 34 -35 50 9 23 19 18 12 -6z m-579 -2 c4 -3 -4 -4 -16 -2 -30 6 -40 16 -12 12 12 -2 24 -6 28 -10z m454 3 c0 -5 -4 -10 -10 -10 -5 0 -10 5 -10 10 0 6 5 10 10 10 6 0 10 -4 10 -10z m-412 -7 c-10 -2 -18 -9 -18 -14 0 -6 5 -7 11 -4 6 4 10 1 8 -6 -4 -30 1 -41 16 -35 9 3 18 -1 21 -9 4 -8 11 -12 18 -8 6 3 3 -3 -7 -14 -9 -11 -14 -23 -10 -28 5 -4 2 -5 -5 -1 -7 4 -10 16 -7 27 4 12 2 19 -7 19 -8 0 -25 10 -37 21 -18 17 -25 19 -31 8 -5 -7 -6 -17 -3 -23 3 -5 1 -6 -6 -2 -6 4 -10 15 -9 24 2 10 -3 16 -10 14 -8 -1 -11 2 -7 8 5 8 11 7 21 -1 11 -9 14 -9 14 0 0 7 5 9 10 6 6 -3 10 1 10 9 0 10 8 16 23 15 16 -1 18 -2 5 -6z m-2148 -13 c0 -5 -7 -10 -15 -10 -8 0 -15 5 -15 10 0 6 7 10 15 10 8 0 15 -4 15 -10z m2620 0 c0 -5 -2 -10 -4 -10 -3 0 -8 5 -11 10 -3 6 -1 10 4 10 6 0 11 -4 11 -10z m-60 -11 c0 -5 4 -8 9 -5 5 3 11 0 14 -7 3 -7 -3 -13 -13 -13 -10 0 -16 4 -14 8 3 4 0 8 -5 8 -6 0 -11 5 -11 10 0 6 5 10 10 10 6 0 10 -5 10 -11z m-525 -19 c3 -5 1 -10 -4 -10 -6 0 -11 5 -11 10 0 6 2 10 4 10 3 0 8 -4 11 -10z m165 0 c0 -5 -2 -10 -4 -10 -3 0 -8 5 -11 10 -3 6 -1 10 4 10 6 0 11 -4 11 -10z m-130 -10 c0 -5 -5 -10 -11 -10 -5 0 -7 5 -4 10 3 6 8 10 11 10 2 0 4 -4 4 -10z m158 -25 c-3 -3 -9 2 -12 12 -6 14 -5 15 5 6 7 -7 10 -15 7 -18z m662 -33 c0 -15 -2 -15 -10 -2 -13 20 -13 33 0 25 6 -3 10 -14 10 -23z m-650 3 c0 -8 -6 -15 -14 -15 -17 0 -28 14 -19 24 12 12 33 6 33 -9z m293 8 c3 -5 -6 -9 -19 -9 -13 -1 -21 2 -18 7 6 11 31 12 37 2z m307 -3 c0 -5 -2 -10 -4 -10 -3 0 -8 5 -11 10 -3 6 -1 10 4 10 6 0 11 -4 11 -10z m-3205 -35 c0 -22 -31 -33 -47 -17 -17 17 -1 44 24 40 15 -2 23 -10 23 -23z m2522 18 c-4 -3 -2 -12 4 -20 7 -8 8 -13 1 -13 -12 0 -23 26 -15 34 4 3 9 6 11 6 3 0 2 -3 -1 -7z m713 -3 c0 -5 -2 -10 -4 -10 -3 0 -8 5 -11 10 -3 6 -1 10 4 10 6 0 11 -4 11 -10z m1050 1 c0 -5 15 -7 33 -6 17 2 37 -2 44 -7 7 -5 17 -7 23 -3 16 10 12 -6 -6 -27 -13 -13 -14 -21 -5 -31 6 -8 8 -17 4 -20 -12 -13 -18 -7 -20 19 0 15 -6 30 -13 34 -9 6 -9 9 1 12 8 3 2 7 -13 10 -16 3 -28 1 -28 -3 0 -16 -15 -10 -28 11 -7 12 -8 20 -2 20 5 0 10 -4 10 -9z m-1280 -17 c0 -2 -9 -4 -21 -4 -11 0 -18 4 -14 10 5 8 35 3 35 -6z m-402 -6 c-2 -7 2 -13 7 -13 6 0 9 3 8 7 -2 4 4 5 13 1 9 -3 12 -9 6 -15 -12 -12 -54 -19 -47 -7 4 5 1 9 -5 9 -7 0 -6 5 2 15 16 18 20 18 16 3z m1662 8 c0 -2 -7 -6 -15 -10 -8 -3 -15 -1 -15 4 0 6 7 10 15 10 8 0 15 -2 15 -4z m-1544 -31 c-3 -9 3 -20 14 -27 11 -7 20 -17 20 -22 0 -5 -11 1 -24 13 -21 20 -26 51 -9 51 3 0 3 -7 -1 -15z m430 -7 c-1 -22 -26 -39 -26 -18 0 6 5 8 12 4 7 -5 9 -2 5 8 -3 9 -3 19 0 22 10 9 10 8 9 -16z m1170 13 c-4 -5 0 -12 6 -14 7 -3 1 -5 -14 -4 -29 1 -37 12 -15 20 20 9 29 8 23 -2z m-1206 -9 c0 -5 -7 -9 -15 -9 -8 0 -12 4 -9 9 3 4 9 8 15 8 5 0 9 -4 9 -8z m-439 -15 c-6 -8 -7 -17 -3 -22 4 -4 -3 -2 -15 4 -25 13 -31 26 -8 18 8 -4 17 -2 20 3 4 6 9 10 12 10 3 0 0 -6 -6 -13z m109 3 c13 -8 13 -11 -2 -27 -10 -9 -18 -12 -18 -6 0 6 6 14 13 16 7 3 6 6 -5 6 -20 1 -35 21 -16 21 7 0 20 -5 28 -10z m51 -24 c5 3 9 0 9 -6 0 -7 -7 -9 -16 -6 -9 3 -18 6 -20 6 -3 0 -2 5 2 12 6 9 9 9 12 0 2 -7 8 -10 13 -6z m-287 -11 c3 -9 0 -15 -9 -15 -9 0 -12 6 -9 15 4 8 7 15 9 15 2 0 5 -7 9 -15z m32 -9 c0 -13 -4 -22 -8 -20 -9 6 -6 44 3 44 4 0 6 -11 5 -24z m59 4 c-3 -5 -12 -10 -18 -10 -7 0 -6 4 3 10 19 12 23 12 15 0z m1705 0 c0 -5 -5 -10 -11 -10 -5 0 -7 5 -4 10 3 6 8 10 11 10 2 0 4 -4 4 -10z m-1610 -32 c0 -6 -6 -5 -15 2 -8 7 -15 14 -15 16 0 2 7 1 15 -2 8 -4 15 -11 15 -16z m-1094 -13 c-3 -9 0 -15 9 -15 7 0 17 -5 21 -12 4 -7 3 -8 -5 -4 -6 4 -19 2 -28 -6 -13 -10 -15 -10 -9 0 4 7 2 20 -6 29 -9 12 -9 15 0 9 6 -4 12 -2 12 3 0 6 3 11 6 11 3 0 4 -7 0 -15z m79 -41 c1 -11 8 -18 14 -16 6 1 11 -2 11 -8 0 -12 -10 -13 -28 -1 -7 4 -12 14 -10 22 2 8 -2 13 -9 12 -7 -2 -10 4 -6 13 7 18 23 6 28 -22z m1090 26 c3 -5 1 -10 -4 -10 -6 0 -11 5 -11 10 0 6 2 10 4 10 3 0 8 -4 11 -10z m-1204 -22 c0 -13 2 -42 5 -65 2 -23 0 -44 -5 -47 -5 -4 -7 3 -4 14 4 14 0 20 -11 20 -9 0 -13 6 -10 14 4 11 0 14 -20 10 -20 -3 -24 -1 -20 11 5 11 2 14 -12 9 -14 -5 -16 -4 -9 4 7 8 21 9 41 3 30 -8 31 -8 28 20 -2 16 1 29 6 29 6 0 10 -10 11 -22z m2539 8 c0 -2 -9 -6 -20 -9 -11 -3 -18 -1 -14 4 5 9 34 13 34 5z m-2950 -46 c0 -5 -5 -10 -11 -10 -5 0 -7 5 -4 10 3 6 8 10 11 10 2 0 4 -4 4 -10z m2932 -9 c-4 -10 -7 -11 -10 -3 -2 7 -9 9 -14 6 -6 -4 -8 -3 -5 3 10 16 36 11 29 -6z m-2422 -1 c0 -5 -2 -10 -4 -10 -3 0 -8 5 -11 10 -3 6 -1 10 4 10 6 0 11 -4 11 -10z m-155 -23 c15 -4 14 -5 -7 -6 -21 -1 -28 4 -28 17 0 11 3 13 8 6 4 -7 16 -14 27 -17z m112 16 c-4 -3 -2 -12 4 -20 9 -10 8 -13 -3 -13 -7 0 -14 9 -15 20 -1 11 3 20 9 20 6 0 8 -3 5 -7z m83 -23 c0 -5 -4 -10 -10 -10 -5 0 -10 5 -10 10 0 6 5 10 10 10 6 0 10 -4 10 -10z m1055 1 c7 -12 -12 -24 -25 -16 -11 7 -4 25 10 25 5 0 11 -4 15 -9z m-1235 -21 c13 -8 13 -10 -2 -10 -9 0 -24 -3 -34 -7 -16 -6 -17 -5 -4 10 18 19 20 20 40 7z m1367 4 c-3 -3 -12 -4 -19 -1 -8 3 -5 6 6 6 11 1 17 -2 13 -5z m-1671 -19 c-1 -8 -6 -18 -11 -22 -4 -4 -5 -2 -1 5 4 6 2 12 -4 12 -6 0 -8 5 -5 10 9 15 24 12 21 -5z m29 5 c3 -5 1 -10 -4 -10 -6 0 -11 5 -11 10 0 6 2 10 4 10 3 0 8 -4 11 -10z m1147 -5 c0 -5 -5 -11 -11 -13 -6 -2 -11 4 -11 13 0 9 5 15 11 13 6 -2 11 -8 11 -13z m-159 -40 c1 -5 -6 -11 -15 -13 -11 -2 -18 3 -18 13 0 17 30 18 33 0z m-853 -19 c0 -3 -4 -8 -10 -11 -5 -3 -10 -1 -10 4 0 6 5 11 10 11 6 0 10 -2 10 -4z m2670 -20 c0 -2 -7 -7 -16 -10 -8 -3 -12 -2 -9 4 6 10 25 14 25 6z m-218 -20 c15 -11 16 -16 4 -31 -16 -22 -46 -14 -46 13 0 33 15 39 42 18z m-2382 -16 c0 -5 -2 -10 -4 -10 -3 0 -8 5 -11 10 -3 6 -1 10 4 10 6 0 11 -4 11 -10z m2606 -16 c8 3 14 1 14 -4 0 -5 -11 -9 -24 -8 -18 2 -22 6 -17 23 5 18 6 18 9 2 2 -11 9 -16 18 -13z m78 -64 c-6 -5 -24 21 -24 34 0 6 6 1 14 -10 8 -10 12 -21 10 -24z m30 8 c-5 -7 -2 -9 9 -5 8 3 21 0 27 -8 16 -20 -4 -26 -28 -9 -23 16 -29 34 -11 34 5 0 7 -5 3 -12z m-3557 -4 c-3 -3 -12 -4 -19 -1 -8 3 -5 6 6 6 11 1 17 -2 13 -5z m3500 0 c-3 -3 -12 -4 -19 -1 -8 3 -5 6 6 6 11 1 17 -2 13 -5z m-2632 -34 c3 -5 1 -10 -4 -10 -6 0 -11 5 -11 10 0 6 2 10 4 10 3 0 8 -4 11 -10z m2705 -11 c0 -4 -9 -7 -19 -6 -11 0 -18 4 -16 7 6 9 35 8 35 -1z m-2715 -17 c-3 -3 -11 0 -18 7 -9 10 -8 11 6 5 10 -3 15 -9 12 -12z m-390 -42 c0 -7 -6 -15 -12 -17 -8 -3 -13 4 -13 17 0 13 5 20 13 18 6 -3 12 -11 12 -18z m2882 -85 c7 -20 -2 -29 -21 -22 -9 4 -13 13 -10 22 8 19 23 19 31 0z m147 -40 c-4 -8 -11 -15 -16 -15 -6 0 -5 6 2 15 7 8 14 15 16 15 2 0 1 -7 -2 -15z m-2744 -25 c0 -5 -2 -10 -4 -10 -3 0 -8 5 -11 10 -3 6 -1 10 4 10 6 0 11 -4 11 -10z m17 -4 c-4 -10 -1 -13 9 -9 23 8 16 -6 -18 -41 -20 -19 -40 -31 -51 -28 -15 3 -16 6 -5 19 12 15 11 15 -10 2 -12 -8 -18 -15 -12 -17 6 -2 8 -8 5 -13 -4 -5 1 -6 9 -3 37 14 -2 -31 -78 -91 -21 -16 -50 -40 -65 -52 -29 -25 -61 -32 -43 -10 8 10 6 13 -11 14 -12 0 -16 -1 -9 -4 6 -3 10 -9 7 -13 -3 -5 -12 -7 -21 -3 -8 3 -21 -2 -28 -12 -12 -17 -13 -17 -11 1 0 10 5 21 10 24 6 2 19 14 30 25 34 34 85 66 95 60 5 -3 8 0 5 7 -2 7 19 31 47 53 27 22 62 50 75 63 14 13 32 21 40 18 7 -3 16 1 19 9 4 8 8 15 11 15 3 0 3 -7 0 -14z m978 -26 c3 -5 1 -10 -4 -10 -6 0 -11 5 -11 10 0 6 2 10 4 10 3 0 8 -4 11 -10z m1690 -38 c-3 -3 -11 0 -18 7 -9 10 -8 11 6 5 10 -3 15 -9 12 -12z m-3215 4 c0 -3 -4 -8 -10 -11 -5 -3 -10 -1 -10 4 0 6 5 11 10 11 6 0 10 -2 10 -4z m-560 -26 c0 -5 -5 -12 -11 -16 -14 -8 -33 11 -25 25 7 11 36 4 36 -9z m840 -180 c0 -4 -11 -12 -25 -18 -27 -13 -32 -8 -13 12 13 13 38 17 38 6z m770 0 c0 -5 -5 -10 -11 -10 -5 0 -7 5 -4 10 3 6 8 10 11 10 2 0 4 -4 4 -10z m-886 -71 c-31 -12 -40 -9 -20 6 10 8 24 11 29 8 6 -4 2 -10 -9 -14z m-882 -24 c0 -5 -5 -11 -11 -13 -6 -2 -11 4 -11 13 0 9 5 15 11 13 6 -2 11 -8 11 -13z m1504 7 c23 -14 25 -48 5 -66 -39 -35 -95 10 -65 52 15 22 40 28 60 14z m2569 -52 c0 -7 -6 -15 -12 -17 -8 -3 -13 4 -13 17 0 13 5 20 13 18 6 -3 12 -11 12 -18z m-3290 -149 c7 -12 -12 -24 -25 -16 -11 7 -4 25 10 25 5 0 11 -4 15 -9z m-165 -41 c0 -11 -6 -20 -14 -20 -18 0 -29 16 -21 30 11 18 35 11 35 -10z m1986 -21 c3 -5 18 -9 34 -9 16 0 47 -6 67 -14 21 -7 63 -21 93 -30 66 -21 68 -22 193 -80 284 -131 432 -271 543 -514 51 -111 66 -266 44 -440 -26 -198 -184 -431 -360 -531 -53 -30 -195 -101 -203 -101 -4 0 -26 -8 -50 -18 -65 -28 -109 -44 -142 -49 -16 -3 -35 -9 -41 -14 -13 -10 -196 -51 -234 -53 l-25 -1 -5 165 c-8 260 2 1694 12 1701 12 8 67 -1 74 -12z m1050 -20 c10 -17 -13 -36 -27 -22 -12 12 -4 33 11 33 5 0 12 -5 16 -11z m-3296 -49 c0 -5 -2 -10 -4 -10 -3 0 -8 5 -11 10 -3 6 -1 10 4 10 6 0 11 -4 11 -10z m3635 -99 c7 -12 -12 -24 -25 -16 -11 7 -4 25 10 25 5 0 11 -4 15 -9z m1535 -242 c0 -5 -4 -9 -10 -9 -5 0 -10 7 -10 16 0 8 5 12 10 9 6 -3 10 -10 10 -16z m-920 -65 c11 -12 11 -18 -2 -30 -18 -18 -48 -8 -48 15 0 33 28 42 50 15z m905 -34 c3 -5 1 -10 -4 -10 -6 0 -11 5 -11 10 0 6 2 10 4 10 3 0 8 -4 11 -10z m-191 -129 c-7 -8 -35 9 -29 19 4 6 11 5 20 -3 7 -6 11 -14 9 -16z m83 -44 c-2 -6 -12 -16 -23 -23 -17 -12 -19 -11 -20 14 -1 15 1 21 3 15 3 -7 12 -13 20 -13 13 0 13 3 3 15 -11 13 -10 14 4 9 9 -4 15 -11 13 -17z m-161 -64 c-10 -10 -19 5 -10 18 6 11 8 11 12 0 2 -7 1 -15 -2 -18z m28 -45 c6 -7 12 -24 13 -37 1 -16 -1 -21 -8 -14 -6 6 -11 17 -12 24 -2 8 -6 20 -10 27 -5 6 -5 12 -2 12 4 0 12 -6 19 -12z m-799 -49 c0 -7 -8 -15 -17 -17 -18 -3 -25 18 -11 32 10 10 28 1 28 -15z m899 13 c3 -5 -1 -9 -9 -9 -8 0 -12 4 -9 9 3 4 7 8 9 8 2 0 6 -4 9 -8z m-3614 -12 c0 -5 -5 -10 -11 -10 -5 0 -7 5 -4 10 3 6 8 10 11 10 2 0 4 -4 4 -10z m470 -25 c0 -9 -7 -18 -16 -22 -18 -7 -39 11 -30 26 11 17 46 13 46 -4z m-795 -125 c3 -5 1 -10 -4 -10 -6 0 -11 5 -11 10 0 6 2 10 4 10 3 0 8 -4 11 -10z m3903 -11 c-2 -6 -8 -10 -13 -10 -5 0 -11 4 -13 10 -2 6 4 11 13 11 9 0 15 -5 13 -11z m-460 -412 c4 -20 -25 -34 -39 -20 -14 14 1 45 20 41 9 -2 17 -11 19 -21z m-962 -78 c10 -17 -13 -36 -27 -22 -12 12 -4 33 11 33 5 0 12 -5 16 -11z m-2246 -240 c0 -5 -7 -9 -15 -9 -15 0 -20 12 -9 23 8 8 24 -1 24 -14z m664 -75 c21 -8 21 -33 0 -41 -18 -7 -35 14 -27 34 6 15 6 15 27 7z m-444 -304 c0 -5 -5 -10 -11 -10 -5 0 -7 5 -4 10 3 6 8 10 11 10 2 0 4 -4 4 -10z m2800 -60 c0 -5 -4 -10 -10 -10 -5 0 -10 5 -10 10 0 6 5 10 10 10 6 0 10 -4 10 -10z m-3403 -66 c8 -21 -13 -42 -28 -27 -13 13 -5 43 11 43 6 0 13 -7 17 -16z m1269 -50 c-5 -13 -10 -14 -18 -6 -6 6 -8 18 -4 28 5 13 10 14 18 6 6 -6 8 -18 4 -28z m1880 -95 c10 -17 -13 -36 -27 -22 -12 12 -4 33 11 33 5 0 12 -5 16 -11z m-4466 -65 c0 -2 -7 -4 -15 -4 -8 0 -15 4 -15 10 0 5 7 7 15 4 8 -4 15 -8 15 -10z m3660 -29 c0 -8 -9 -15 -20 -15 -11 0 -20 7 -20 15 0 8 9 15 20 15 11 0 20 -7 20 -15z m-3385 -5 c-3 -5 -12 -10 -18 -10 -7 0 -6 4 3 10 19 12 23 12 15 0z m1803 -97 c-2 -10 -10 -18 -18 -18 -8 0 -16 8 -18 18 -2 12 3 17 18 17 15 0 20 -5 18 -17z m-2018 -38 c0 -8 -4 -15 -10 -15 -5 0 -10 7 -10 15 0 8 5 15 10 15 6 0 10 -7 10 -15z m-480 -215 c0 -5 -2 -10 -4 -10 -3 0 -8 5 -11 10 -3 6 -1 10 4 10 6 0 11 -4 11 -10z m-5 -50 c3 -5 1 -10 -4 -10 -6 0 -11 5 -11 10 0 6 2 10 4 10 3 0 8 -4 11 -10z m3420 -101 c10 -15 -1 -23 -20 -15 -9 3 -13 10 -10 16 8 13 22 13 30 -1z m-2767 -86 c-5 -26 -38 -29 -38 -4 0 15 6 21 21 21 14 0 19 -5 17 -17z m2372 -57 c0 -3 -4 -8 -10 -11 -5 -3 -10 -1 -10 4 0 6 5 11 10 11 6 0 10 -2 10 -4z m-2890 -66 c0 -5 -4 -10 -10 -10 -5 0 -10 5 -10 10 0 6 5 10 10 10 6 0 10 -4 10 -10z m40 -140 c0 -5 -4 -10 -10 -10 -5 0 -10 5 -10 10 0 6 5 10 10 10 6 0 10 -4 10 -10z m820 -230 c0 -5 -4 -10 -10 -10 -5 0 -10 5 -10 10 0 6 5 10 10 10 6 0 10 -4 10 -10z m-453 -116 c9 -23 -13 -40 -32 -24 -12 10 -13 16 -4 26 15 18 28 18 36 -2z m1703 -244 c0 -5 -4 -10 -10 -10 -5 0 -10 5 -10 10 0 6 5 10 10 10 6 0 10 -4 10 -10z m-1040 -136 c0 -8 -5 -12 -10 -9 -6 4 -8 11 -5 16 9 14 15 11 15 -7z m1638 -297 c4 -22 -24 -33 -43 -17 -12 10 -13 16 -4 27 16 18 43 13 47 -10z" fill="#773084"/>
<path d="M9621 10811 c-9 -6 -7 -10 8 -14 12 -3 21 -1 21 3 0 14 -15 19 -29 11z" fill="#773084"/>
<path d="M10330 15865 c0 -9 6 -12 15 -9 8 4 12 10 9 15 -8 14 -24 10 -24 -6z" fill="#773084"/>
<path d="M10378 15873 c7 -3 16 -2 19 1 4 3 -2 6 -13 5 -11 0 -14 -3 -6 -6z" fill="#773084"/>
<path d="M10443 15873 c9 -2 15 -9 12 -14 -10 -15 1 -10 15 6 11 13 8 15 -16 14 -17 -1 -22 -3 -11 -6z" fill="#773084"/>
<path d="M10385 15848 c21 -12 23 -12 28 -1 1 3 -9 8 -23 9 -23 4 -24 3 -5 -8z" fill="#773084"/>
<path d="M10320 15775 c0 -1 11 -10 25 -19 19 -13 23 -13 19 -2 -4 12 -44 31 -44 21z" fill="#773084"/>
<path d="M10370 15776 c0 -2 7 -7 16 -10 8 -3 12 -2 9 4 -6 10 -25 14 -25 6z" fill="#773084"/>
<path d="M10305 15750 c5 -15 2 -26 -6 -31 -11 -7 -10 -9 4 -9 9 0 17 5 17 11 0 6 9 9 20 6 26 -7 25 -5 -11 22 l-31 23 7 -22z" fill="#773084"/>
<path d="M10405 15740 c3 -5 8 -10 11 -10 2 0 4 5 4 10 0 6 -5 10 -11 10 -5 0 -7 -4 -4 -10z" fill="#773084"/>
<path d="M13670 15739 c0 -6 -9 -8 -21 -4 -12 4 -38 3 -58 -3 -20 -6 -63 -18 -96 -27 -33 -9 -69 -20 -80 -25 -11 -4 -42 -17 -70 -27 -44 -17 -51 -24 -56 -54 -4 -19 -7 -27 -8 -18 -1 21 -25 31 -40 16 -8 -8 -3 -16 17 -30 15 -10 19 -17 10 -13 -10 3 -20 1 -23 -4 -11 -18 -22 -10 -22 15 0 34 -3 35 -43 25 -19 -5 -56 -15 -82 -21 -53 -14 -54 -15 -64 -162 l-7 -92 69 -50 c38 -27 121 -96 186 -152 l117 -103 70 82 c38 45 82 107 97 137 16 31 32 58 36 59 5 2 6 8 2 13 -3 5 -1 9 5 9 9 0 21 26 20 44 0 5 4 12 11 16 13 8 86 207 106 290 22 87 21 90 -31 90 -25 0 -45 -5 -45 -11z m-420 -224 c0 -9 -6 -12 -16 -8 -13 5 -13 7 -2 14 17 11 18 11 18 -6z m185 -43 c-3 -3 -11 0 -18 7 -9 10 -8 11 6 5 10 -3 15 -9 12 -12z" fill="#773084"/>
<path d="M10330 15665 c0 -8 4 -15 8 -15 5 0 9 7 9 15 0 8 -4 15 -9 15 -4 0 -8 -7 -8 -15z" fill="#773084"/>
<path d="M10380 15625 c-7 -9 -8 -15 -2 -15 5 0 12 7 16 15 3 8 4 15 2 15 -2 0 -9 -7 -16 -15z" fill="#773084"/>
<path d="M10410 15623 c0 -3 7 -14 15 -23 8 -9 18 -30 21 -47 5 -28 4 -30 -19 -30 -18 0 -24 4 -20 14 4 11 8 11 21 1 13 -11 14 -10 7 12 -4 14 -14 32 -23 40 -14 14 -15 13 -1 -4 11 -15 11 -20 2 -23 -7 -3 -13 -11 -13 -18 0 -7 -8 -16 -17 -18 -17 -4 -17 -5 -1 -6 11 -1 15 -6 12 -16 -7 -17 31 -22 41 -5 4 6 10 8 13 6 4 -2 17 11 30 29 15 24 17 33 7 29 -8 -4 -15 -14 -16 -23 0 -13 -1 -13 -5 -1 -14 43 -38 90 -46 90 -4 0 -8 -3 -8 -7z" fill="#773084"/>
<path d="M10515 15550 c3 -6 -2 -10 -12 -11 -11 0 -13 -3 -5 -6 6 -2 10 -9 6 -14 -3 -5 1 -9 9 -9 20 0 29 37 10 44 -8 3 -11 1 -8 -4z" fill="#773084"/>
<path d="M10775 15540 c3 -5 8 -10 11 -10 2 0 4 5 4 10 0 6 -5 10 -11 10 -5 0 -7 -4 -4 -10z" fill="#773084"/>
<path d="M10567 15503 c31 -27 37 -29 29 -8 -3 8 -1 15 4 15 6 0 10 -5 10 -11 0 -5 5 -7 10 -4 18 11 1 23 -40 27 l-40 4 27 -23z" fill="#773084"/>
<path d="M10484 15494 c9 -8 16 -20 16 -25 0 -5 6 -9 14 -9 8 0 17 -6 19 -12 4 -10 6 -9 6 1 1 11 4 11 19 0 15 -12 16 -12 5 2 -7 9 -9 20 -5 25 4 4 0 3 -9 -4 -13 -10 -20 -7 -39 13 -13 14 -28 25 -32 25 -5 0 -2 -7 6 -16z" fill="#773084"/>
<path d="M10690 15456 c0 -2 7 -7 16 -10 8 -3 12 -2 9 4 -6 10 -25 14 -25 6z" fill="#773084"/>
<path d="M10580 15436 c0 -2 7 -7 16 -10 8 -3 12 -2 9 4 -6 10 -25 14 -25 6z" fill="#773084"/>
<path d="M10557 15410 c3 -11 7 -20 9 -20 2 0 4 9 4 20 0 11 -4 20 -9 20 -5 0 -7 -9 -4 -20z" fill="#773084"/>
<path d="M10610 15380 c0 -5 5 -10 11 -10 5 0 7 5 4 10 -3 6 -8 10 -11 10 -2 0 -4 -4 -4 -10z" fill="#773084"/>
<path d="M10578 15373 c7 -3 16 -2 19 1 4 3 -2 6 -13 5 -11 0 -14 -3 -6 -6z" fill="#773084"/>
<path d="M10736 15328 c3 -5 10 -6 15 -3 13 9 11 12 -6 12 -8 0 -12 -4 -9 -9z" fill="#773084"/>
<path d="M10575 15320 c3 -5 11 -10 16 -10 6 0 7 5 4 10 -3 6 -11 10 -16 10 -6 0 -7 -4 -4 -10z" fill="#773084"/>
<path d="M10685 15310 c-3 -6 1 -7 9 -4 18 7 21 14 7 14 -6 0 -13 -4 -16 -10z" fill="#773084"/>
<path d="M10830 15272 c-17 -8 -26 -52 -11 -52 6 0 8 7 5 15 -4 8 -2 15 4 15 5 0 12 7 16 15 3 8 4 15 3 14 -1 0 -9 -3 -17 -7z" fill="#773084"/>
<path d="M10848 15233 c6 -2 18 -2 25 0 6 3 1 5 -13 5 -14 0 -19 -2 -12 -5z" fill="#773084"/>
<path d="M11045 15060 c4 -6 11 -8 16 -5 14 9 11 15 -7 15 -8 0 -12 -5 -9 -10z" fill="#773084"/>
<path d="M11070 15010 c-18 -12 -2 -12 25 0 13 6 15 9 5 9 -8 0 -22 -4 -30 -9z" fill="#773084"/>
<path d="M11134 14959 c-3 -6 -2 -15 3 -20 5 -5 9 -1 9 11 0 23 -2 24 -12 9z" fill="#773084"/>
<path d="M11170 14820 c0 -5 5 -10 11 -10 5 0 7 5 4 10 -3 6 -8 10 -11 10 -2 0 -4 -4 -4 -10z" fill="#773084"/>
<path d="M11563 14813 c-7 -2 -13 -11 -13 -18 0 -7 6 -15 13 -18 7 -3 12 4 12 19 0 13 0 24 0 23 0 0 -6 -3 -12 -6z" fill="#773084"/>
<path d="M11076 14791 c-3 -4 0 -16 7 -25 12 -17 14 -17 28 1 13 16 13 17 -3 4 -18 -13 -24 -7 -19 22 1 10 -7 9 -13 -2z" fill="#773084"/>
<path d="M11591 14784 c0 -11 3 -14 6 -6 3 7 2 16 -1 19 -3 4 -6 -2 -5 -13z" fill="#773084"/>
<path d="M11130 14770 c0 -5 5 -10 11 -10 5 0 7 5 4 10 -3 6 -8 10 -11 10 -2 0 -4 -4 -4 -10z" fill="#773084"/>
<path d="M11160 14761 c0 -6 5 -13 10 -16 6 -4 8 -10 5 -15 -3 -4 1 -13 8 -19 22 -17 17 19 -5 41 -10 10 -18 14 -18 9z" fill="#773084"/>
<path d="M11110 14712 c0 -7 -7 -12 -15 -12 -8 0 -15 -4 -15 -9 0 -5 -9 -7 -20 -4 -11 3 -18 8 -16 12 3 4 -5 8 -17 8 -16 2 -18 0 -8 -6 7 -5 11 -14 7 -20 -5 -7 -1 -9 8 -5 9 3 16 1 16 -6 0 -7 8 -9 21 -5 14 5 19 3 15 -3 -9 -15 14 -26 27 -13 8 8 8 11 -2 11 -7 0 -9 5 -6 10 3 6 1 10 -6 10 -7 0 -4 6 7 14 10 8 16 18 11 22 -4 4 -7 2 -7 -4z" fill="#773084"/>
<path d="M11245 14711 c-3 -6 5 -15 17 -21 21 -10 21 -10 6 3 -10 8 -15 17 -11 20 3 4 4 7 0 7 -3 0 -8 -4 -12 -9z" fill="#773084"/>
<path d="M11170 14684 c8 -4 21 -13 28 -22 7 -10 12 -11 12 -4 0 18 37 14 44 -4 4 -12 2 -15 -9 -10 -8 3 -15 1 -15 -3 0 -10 25 -21 48 -21 15 0 15 2 2 10 -12 8 -13 12 -2 19 16 10 -24 28 -83 36 -22 3 -33 2 -25 -1z" fill="#773084"/>
<path d="M11208 14593 c7 -3 16 -2 19 1 4 3 -2 6 -13 5 -11 0 -14 -3 -6 -6z" fill="#773084"/>
<path d="M11277 14589 c7 -7 15 -10 18 -7 3 3 -2 9 -12 12 -14 6 -15 5 -6 -5z" fill="#773084"/>
<path d="M11210 14539 c0 -5 5 -7 10 -4 6 3 10 8 10 11 0 2 -4 4 -10 4 -5 0 -10 -5 -10 -11z" fill="#773084"/>
<path d="M11236 14532 c-4 -11 -14 -23 -22 -26 -10 -4 -13 -13 -9 -26 4 -12 2 -27 -5 -35 -9 -11 -7 -12 9 -8 12 3 18 10 15 15 -4 6 0 14 7 19 20 12 26 11 33 -7 4 -12 2 -15 -9 -10 -8 3 -15 1 -15 -4 0 -6 7 -10 15 -10 8 0 15 -4 15 -10 0 -5 4 -10 9 -10 10 0 9 7 -4 53 -7 28 -19 35 -30 17 -15 -25 -24 -7 -10 21 9 17 14 33 12 36 -3 2 -8 -4 -11 -15z" fill="#773084"/>
<path d="M11186 14515 c-3 -8 -1 -15 4 -15 13 0 22 18 11 24 -5 3 -11 -1 -15 -9z" fill="#773084"/>
<path d="M11300 14521 c-20 -6 -22 -8 -8 -13 9 -4 24 0 35 7 19 15 12 17 -27 6z" fill="#773084"/>
<path d="M11310 14484 c0 -10 -5 -14 -15 -10 -13 4 -14 2 -5 -14 12 -22 34 -28 27 -7 -2 6 0 20 5 30 5 11 5 17 -2 17 -5 0 -10 -7 -10 -16z" fill="#773084"/>
<path d="M11255 14320 c-3 -5 -1 -10 4 -10 6 0 11 5 11 10 0 6 -2 10 -4 10 -3 0 -8 -4 -11 -10z" fill="#773084"/>
<path d="M7534 14131 c4 -5 0 -11 -6 -14 -7 -2 -1 -4 14 -4 23 0 25 2 13 13 -15 16 -29 19 -21 5z" fill="#773084"/>
<path d="M7530 14019 c0 -5 5 -7 10 -4 6 3 10 8 10 11 0 2 -4 4 -10 4 -5 0 -10 -5 -10 -11z" fill="#773084"/>
<path d="M7494 14009 c-4 -7 -3 -9 3 -6 6 4 14 -5 18 -20 5 -21 8 -24 16 -12 7 12 9 12 9 0 0 -8 2 -12 5 -9 3 3 2 13 -1 22 -5 14 -9 15 -15 4 -7 -10 -9 -9 -9 4 0 21 -16 32 -26 17z" fill="#773084"/>
<path d="M7500 13943 c0 -4 5 -15 10 -23 8 -13 10 -13 10 2 0 9 -4 20 -10 23 -5 3 -10 3 -10 -2z" fill="#773084"/>
<path d="M7250 13896 c0 -2 7 -7 16 -10 8 -3 12 -2 9 4 -6 10 -25 14 -25 6z" fill="#773084"/>
<path d="M7435 13869 c-4 -6 -5 -12 -2 -15 2 -3 7 2 10 11 7 17 1 20 -8 4z" fill="#773084"/>
<path d="M7248 13858 c-7 -16 -1 -28 13 -28 4 0 10 7 13 16 3 8 2 13 -3 9 -5 -3 -11 0 -13 7 -3 8 -6 6 -10 -4z" fill="#773084"/>
<path d="M6962 13821 c-11 -7 -10 -9 3 -14 9 -4 13 -3 10 3 -3 6 -1 10 4 10 6 0 11 -4 11 -10 0 -5 5 -10 11 -10 8 0 8 5 -1 15 -14 17 -20 18 -38 6z" fill="#773084"/>
<path d="M7250 13815 c0 -15 21 -35 37 -35 7 0 13 5 13 11 0 6 -7 9 -15 5 -8 -3 -19 2 -24 12 -6 9 -11 12 -11 7z" fill="#773084"/>
<path d="M6894 13769 c-21 -22 -24 -28 -10 -23 14 5 17 4 12 -4 -4 -8 0 -12 10 -12 14 0 15 3 6 12 -16 16 -15 31 1 22 6 -4 9 -4 5 1 -4 4 -3 14 3 22 21 25 3 13 -27 -18z" fill="#773084"/>
<path d="M7125 13780 c-3 -5 1 -10 10 -10 9 0 13 5 10 10 -3 6 -8 10 -10 10 -2 0 -7 -4 -10 -10z" fill="#773084"/>
<path d="M7025 13740 c-3 -5 -2 -10 4 -10 5 0 13 5 16 10 3 6 2 10 -4 10 -5 0 -13 -4 -16 -10z" fill="#773084"/>
<path d="M7070 13699 c0 -5 5 -7 10 -4 6 3 10 8 10 11 0 2 -4 4 -10 4 -5 0 -10 -5 -10 -11z" fill="#773084"/>
<path d="M8267 13569 c7 -7 15 -10 18 -7 3 3 -2 9 -12 12 -14 6 -15 5 -6 -5z" fill="#773084"/>
<path d="M7628 13546 c-10 -7 -18 -20 -18 -29 0 -8 -6 -18 -12 -20 -7 -3 -4 -6 7 -7 11 -1 27 -3 36 -5 8 -1 24 4 34 11 10 8 14 14 8 14 -7 0 -14 -4 -17 -9 -6 -10 -46 -3 -46 8 0 4 7 17 16 29 17 25 16 27 -8 8z" fill="#773084"/>
<path d="M8375 13551 c-3 -5 -2 -12 3 -15 5 -3 9 1 9 9 0 17 -3 19 -12 6z" fill="#773084"/>
<path d="M8290 13541 c0 -6 6 -11 13 -11 8 0 7 -4 -3 -10 -9 -6 -10 -10 -3 -10 19 0 24 17 8 30 -10 9 -15 9 -15 1z" fill="#773084"/>
<path d="M8337 13539 c7 -7 15 -10 18 -7 3 3 -2 9 -12 12 -14 6 -15 5 -6 -5z" fill="#773084"/>
<path d="M8439 13523 c-13 -16 -12 -17 4 -4 9 7 17 15 17 17 0 8 -8 3 -21 -13z" fill="#773084"/>
<path d="M6813 13511 c-1 -10 5 -18 13 -18 18 0 19 23 1 30 -7 3 -13 -3 -14 -12z" fill="#773084"/>
<path d="M7573 13515 c0 -7 6 -11 14 -8 7 3 13 6 13 8 0 2 -6 5 -13 8 -8 3 -14 -1 -14 -8z" fill="#773084"/>
<path d="M7710 13499 c15 -17 40 -21 40 -7 0 4 -4 8 -9 8 -5 0 -17 3 -27 7 -16 6 -17 5 -4 -8z" fill="#773084"/>
<path d="M8105 13499 c-17 -7 -16 -8 8 -8 20 -1 26 -5 21 -13 -5 -9 -2 -9 9 1 9 7 17 16 17 19 0 3 -3 2 -7 -1 -3 -4 -11 -3 -17 2 -6 5 -20 5 -31 0z" fill="#773084"/>
<path d="M8370 13496 c0 -2 7 -7 16 -10 8 -3 12 -2 9 4 -6 10 -25 14 -25 6z" fill="#773084"/>
<path d="M8487 13480 c3 -11 9 -20 15 -20 5 0 4 9 -2 20 -6 11 -12 20 -14 20 -2 0 -2 -9 1 -20z" fill="#773084"/>
<path d="M8266 13474 c-5 -14 -4 -15 9 -4 17 14 19 20 6 20 -5 0 -12 -7 -15 -16z" fill="#773084"/>
<path d="M8217 13462 c-10 -10 -17 -23 -17 -28 0 -5 4 -3 9 5 8 12 12 12 25 2 11 -9 16 -10 16 -2 0 6 -5 11 -11 11 -6 0 -9 7 -5 15 7 20 3 19 -17 -3z" fill="#773084"/>
<path d="M8438 13463 c7 -3 16 -2 19 1 4 3 -2 6 -13 5 -11 0 -14 -3 -6 -6z" fill="#773084"/>
<path d="M8130 13445 c-7 -9 -11 -17 -9 -20 3 -2 10 5 17 15 14 24 10 26 -8 5z" fill="#773084"/>
<path d="M8267 13437 c-9 -11 -14 -23 -11 -26 3 -3 12 2 19 12 10 13 14 15 18 5 2 -7 7 -11 10 -8 3 3 0 12 -7 22 -11 15 -13 14 -29 -5z" fill="#773084"/>
<path d="M7750 13420 c-9 -6 -10 -10 -3 -10 6 0 15 5 18 10 8 12 4 12 -15 0z" fill="#773084"/>
<path d="M8127 13389 c3 -10 10 -19 15 -19 5 0 6 5 3 10 -3 6 -1 10 6 10 16 0 3 13 -15 16 -9 1 -12 -5 -9 -17z" fill="#773084"/>
<path d="M8036 13363 c-6 -14 -5 -15 5 -6 7 7 10 15 7 18 -3 3 -9 -2 -12 -12z" fill="#773084"/>
<path d="M8147 13353 c-10 -9 -9 -33 1 -33 4 0 8 9 8 20 0 23 0 22 -9 13z" fill="#773084"/>
<path d="M8075 13339 c7 -20 -35 -41 -58 -28 -13 8 -15 6 -11 -5 6 -17 34 -30 34 -16 0 5 9 12 20 15 27 9 49 -15 46 -49 -2 -15 -1 -24 3 -20 9 9 8 93 -2 87 -4 -3 -15 3 -23 13 -10 14 -12 14 -9 3z" fill="#773084"/>
<path d="M8216 13324 c-23 -23 -20 -30 4 -9 11 10 20 20 20 22 0 7 -9 2 -24 -13z" fill="#773084"/>
<path d="M8130 13300 c0 -5 5 -10 10 -10 6 0 10 5 10 10 0 6 -4 10 -10 10 -5 0 -10 -4 -10 -10z" fill="#773084"/>
<path d="M8160 13302 c0 -5 7 -9 15 -9 8 0 15 4 15 9 0 4 -7 8 -15 8 -8 0 -15 -4 -15 -8z" fill="#773084"/>
<path d="M7941 13286 c-9 -11 -8 -15 5 -20 9 -4 19 -4 22 -1 3 3 0 5 -7 5 -8 0 -11 7 -7 15 7 19 2 19 -13 1z" fill="#773084"/>
<path d="M7991 13283 c7 -12 15 -20 18 -17 3 2 -3 12 -13 22 -17 16 -18 16 -5 -5z" fill="#773084"/>
<path d="M8143 13283 c-18 -7 -16 -30 3 -37 12 -4 15 -2 10 9 -3 8 -1 15 4 15 6 0 10 -4 10 -8 0 -5 7 -9 15 -9 18 0 20 13 3 24 -16 9 -30 11 -45 6z" fill="#773084"/>
<path d="M8040 13270 c-9 -6 -10 -10 -3 -10 6 0 15 5 18 10 8 12 4 12 -15 0z" fill="#773084"/>
<path d="M8012 13224 c2 -15 -3 -29 -10 -31 -8 -3 -10 2 -6 14 5 15 4 15 -5 3 -17 -24 6 -36 29 -15 15 14 17 20 8 26 -7 4 -9 12 -4 16 4 4 14 -1 22 -11 7 -11 17 -17 20 -13 11 10 -17 37 -38 37 -14 0 -18 -6 -16 -26z" fill="#773084"/>
<path d="M7917 13229 c7 -7 15 -10 18 -7 3 3 -2 9 -12 12 -14 6 -15 5 -6 -5z" fill="#773084"/>
<path d="M7892 13206 c10 -7 14 -17 10 -21 -4 -5 -1 -5 6 -1 10 6 10 11 1 22 -6 8 -17 14 -23 14 -6 0 -3 -7 6 -14z" fill="#773084"/>
<path d="M7990 13160 c-12 -7 -10 -9 8 -7 12 0 22 5 22 9 0 11 -12 10 -30 -2z" fill="#773084"/>
<path d="M8875 12950 c3 -5 8 -10 11 -10 2 0 4 5 4 10 0 6 -5 10 -11 10 -5 0 -7 -4 -4 -10z" fill="#773084"/>
<path d="M11000 12235 c-11 -13 -10 -14 4 -9 9 3 16 10 16 15 0 13 -6 11 -20 -6z" fill="#773084"/>
<path d="M11084 12231 c0 -11 5 -17 13 -14 10 4 11 9 2 19 -15 18 -15 18 -15 -5z" fill="#773084"/>
<path d="M10958 12198 c9 -9 15 -9 24 0 9 9 7 12 -12 12 -19 0 -21 -3 -12 -12z" fill="#773084"/>
<path d="M10931 12172 c0 -15 3 -21 6 -14 2 6 9 10 14 6 5 -3 9 1 9 9 0 8 -7 17 -15 21 -11 4 -15 -2 -14 -22z" fill="#773084"/>
<path d="M10875 12139 c-5 -5 -22 -19 -36 -31 -48 -41 -94 -85 -111 -106 -17 -21 -16 -21 17 -17 29 4 33 2 28 -12 -4 -10 -2 -14 4 -10 6 4 18 0 26 -8 20 -19 38 -19 31 0 -8 19 3 19 22 1 11 -11 11 -16 1 -19 -9 -4 -8 -8 3 -17 13 -10 12 -11 -6 -7 -17 3 -20 1 -17 -14 5 -16 7 -16 20 -4 21 22 28 19 29 -13 1 -15 -1 -21 -3 -14 -8 22 -23 12 -17 -12 5 -21 3 -23 -20 -19 -15 3 -26 1 -26 -6 0 -6 -5 -11 -11 -11 -5 0 -7 5 -3 11 7 11 -12 29 -31 29 -5 0 -3 -5 5 -10 8 -5 15 -15 15 -21 0 -6 10 -15 22 -20 17 -6 21 -5 16 7 -3 7 0 14 6 14 6 0 11 -4 11 -10 0 -19 15 -10 33 21 9 17 15 35 11 40 -3 5 2 9 10 9 10 0 13 -6 9 -17 -4 -11 -3 -14 5 -9 23 14 1 69 -23 59 -10 -3 -15 1 -15 15 0 12 9 23 20 27 11 3 20 11 20 16 0 15 -22 10 -35 -8 -11 -14 -16 -15 -28 -5 -15 13 -12 52 4 52 5 0 9 9 9 20 0 22 -26 17 -48 -9 -8 -9 -10 -10 -6 -2 3 7 2 16 -4 20 -6 4 -5 11 4 19 8 7 14 8 14 2 0 -14 27 -13 33 3 4 10 6 10 6 0 1 -20 24 -15 44 7 15 18 15 21 2 26 -13 5 -13 9 -3 23 7 9 8 13 4 9 -5 -4 -14 -4 -20 1 -6 5 -15 5 -21 0z m19 -20 c-3 -6 -1 -15 5 -19 9 -5 9 -10 -1 -18 -11 -9 -14 -5 -16 19 -1 16 3 29 8 29 6 0 8 -5 4 -11z m-104 -111 c0 -4 -4 -8 -9 -8 -6 0 -12 4 -15 8 -3 5 1 9 9 9 8 0 15 -4 15 -9z m40 -28 c0 -13 -12 -19 -26 -13 -21 8 -17 22 6 20 11 -1 20 -4 20 -7z" fill="#773084"/>
<path d="M10935 12130 c-3 -5 -1 -10 4 -10 6 0 11 5 11 10 0 6 -2 10 -4 10 -3 0 -8 -4 -11 -10z" fill="#773084"/>
<path d="M10936 12082 l-19 -27 24 22 c12 12 21 24 18 27 -2 2 -13 -8 -23 -22z" fill="#773084"/>
<path d="M10975 12100 c-3 -5 -1 -10 4 -10 6 0 11 5 11 10 0 6 -2 10 -4 10 -3 0 -8 -4 -11 -10z" fill="#773084"/>
<path d="M11095 12100 c3 -5 8 -10 11 -10 2 0 4 5 4 10 0 6 -5 10 -11 10 -5 0 -7 -4 -4 -10z" fill="#773084"/>
<path d="M11180 12100 c-9 -6 -10 -10 -3 -10 6 0 15 5 18 10 8 12 4 12 -15 0z" fill="#773084"/>
<path d="M11080 12060 c0 -11 4 -20 8 -20 4 0 8 9 8 20 0 11 -4 20 -8 20 -4 0 -8 -9 -8 -20z" fill="#773084"/>
<path d="M11033 12057 c3 -8 -1 -21 -9 -27 -18 -16 -18 -27 0 -27 8 0 12 6 9 14 -7 18 5 16 24 -3 13 -13 17 -13 24 -2 5 7 9 8 9 3 0 -6 -6 -17 -12 -24 -11 -11 -9 -11 10 -2 12 7 20 16 17 22 -4 5 -1 9 4 9 16 0 13 -31 -3 -44 -8 -6 -17 -21 -20 -33 -6 -18 -3 -22 13 -20 13 1 17 5 11 12 -8 10 12 48 25 45 4 -1 9 1 13 4 3 3 0 6 -6 6 -7 0 -12 9 -12 21 0 13 -6 20 -17 18 -32 -3 -43 1 -65 23 -14 14 -19 16 -15 5z" fill="#773084"/>
<path d="M10883 12038 c4 -10 2 -18 -2 -18 -14 0 -23 -32 -11 -44 6 -6 10 -6 10 0 0 5 5 16 10 24 8 12 15 9 45 -20 27 -26 38 -31 47 -22 9 9 9 12 0 12 -7 0 -12 4 -12 10 0 5 12 8 28 6 15 -2 19 -1 9 1 -10 2 -16 11 -15 18 2 8 -1 14 -7 14 -5 1 -10 -3 -10 -9 0 -5 -3 -10 -7 -10 -5 0 -13 0 -19 0 -8 0 -8 5 1 15 10 12 10 15 -3 15 -9 0 -18 -8 -21 -17 -3 -11 -4 -9 -3 6 1 13 -4 26 -11 28 -8 3 -10 -2 -6 -14 5 -16 4 -16 -12 2 -14 17 -16 17 -11 3z" fill="#773084"/>
<path d="M11158 12020 c11 -12 25 -21 31 -19 16 6 -1 25 -28 34 l-24 7 21 -22z" fill="#773084"/>
<path d="M11049 11998 c-5 -32 -1 -62 8 -65 17 -6 21 20 6 47 -7 14 -13 22 -14 18z" fill="#773084"/>
<path d="M10671 11945 c-21 -26 -21 -45 2 -45 7 0 6 4 -3 10 -9 6 -10 10 -3 10 6 0 14 8 16 18 3 9 4 1 3 -20 -2 -24 1 -35 8 -32 9 4 11 84 2 84 -1 0 -12 -11 -25 -25z" fill="#773084"/>
<path d="M11000 11960 c0 -8 14 -24 34 -40 18 -14 19 -14 7 8 -6 12 -9 27 -6 32 3 5 -4 8 -15 7 -11 -1 -20 -4 -20 -7z" fill="#773084"/>
<path d="M11154 11953 c6 -14 4 -14 -11 -2 -15 13 -16 12 -10 -10 3 -14 1 -31 -5 -38 -12 -14 -32 -18 -24 -4 10 15 -36 21 -51 6 -11 -12 -10 -16 8 -25 19 -11 20 -10 14 12 l-6 23 18 -23 c13 -15 25 -21 36 -16 13 5 16 2 11 -10 -4 -12 -2 -15 9 -10 15 5 31 49 23 62 -5 9 20 32 28 25 3 -4 6 -1 6 5 0 7 -3 12 -7 13 -5 0 -16 2 -26 4 -13 2 -17 -1 -13 -12z" fill="#773084"/>
<path d="M10714 11928 c0 -10 4 -18 8 -18 4 0 8 5 8 12 0 6 3 8 7 5 3 -4 12 -2 20 4 9 9 13 8 13 0 0 -6 7 -11 16 -11 9 0 14 6 11 13 -2 7 -21 12 -43 12 -31 0 -40 -4 -40 -17z" fill="#773084"/>
<path d="M11246 11942 c-3 -5 1 -9 9 -9 8 0 12 4 9 9 -3 4 -7 8 -9 8 -2 0 -6 -4 -9 -8z" fill="#773084"/>
<path d="M10945 11930 c-2 -3 6 -7 18 -7 12 -1 23 -7 25 -13 2 -5 8 -10 14 -10 7 0 7 5 -1 13 -6 8 -9 16 -7 18 2 2 -7 4 -21 4 -14 0 -26 -2 -28 -5z" fill="#773084"/>
<path d="M11180 11920 c0 -5 7 -10 15 -10 8 0 15 5 15 10 0 6 -7 10 -15 10 -8 0 -15 -4 -15 -10z" fill="#773084"/>
<path d="M10773 11906 c19 -15 24 -31 5 -20 -7 4 -8 3 -4 -5 6 -9 11 -9 22 0 13 11 19 5 14 -16 -1 -5 4 -5 10 2 17 16 6 29 -32 42 -28 9 -31 9 -15 -3z" fill="#773084"/>
<path d="M11250 11910 c-12 -7 -10 -9 7 -7 12 0 19 5 17 9 -6 10 -6 10 -24 -2z" fill="#773084"/>
<path d="M10725 11900 c-3 -5 -4 -10 -1 -10 2 0 12 -3 20 -6 12 -5 15 -2 10 10 -7 18 -20 21 -29 6z" fill="#773084"/>
<path d="M11274 11883 c5 -9 1 -13 -11 -13 -15 0 -16 -2 -3 -10 9 -5 16 -6 18 0 2 5 11 6 20 3 18 -7 17 -5 -12 17 -13 10 -17 10 -12 3z" fill="#773084"/>
<path d="M10712 11873 c-6 -2 -10 -9 -6 -14 3 -5 1 -9 -5 -9 -5 0 -11 5 -13 12 -2 6 -9 8 -15 5 -8 -5 -8 -14 0 -31 12 -24 37 -25 37 0 0 8 6 11 15 8 22 -9 38 5 24 22 -12 15 -16 16 -37 7z m33 -13 c3 -5 -1 -10 -10 -10 -9 0 -13 5 -10 10 3 6 8 10 10 10 2 0 7 -4 10 -10z" fill="#773084"/>
<path d="M10970 11860 c0 -5 9 -14 20 -20 11 -6 20 -9 20 -8 0 2 -9 11 -20 21 -11 9 -20 13 -20 7z" fill="#773084"/>
<path d="M10944 11834 c3 -15 1 -35 -4 -44 -6 -11 -5 -21 3 -29 9 -10 8 -11 -7 -5 -13 5 -17 4 -12 -4 9 -15 36 -16 36 -2 0 6 5 10 11 10 5 0 7 -5 3 -12 -4 -7 -3 -8 5 -4 14 9 5 26 -15 26 -23 0 -16 20 9 21 17 1 18 2 4 6 -12 3 -15 9 -9 16 6 8 2 18 -10 30 -18 17 -18 17 -14 -9z" fill="#773084"/>
<path d="M11330 11850 c0 -5 5 -9 12 -7 7 1 12 -5 13 -13 0 -8 5 -16 10 -16 6 -1 9 2 8 7 -2 5 3 9 10 9 6 0 -1 7 -17 15 -34 18 -36 18 -36 5z" fill="#773084"/>
<path d="M10910 11842 c-17 -8 -25 -32 -10 -32 6 0 10 5 10 11 0 5 4 8 8 5 5 -3 9 1 9 9 0 8 -1 15 -1 14 -1 0 -8 -3 -16 -7z" fill="#773084"/>
<path d="M11245 11841 c-3 -6 -1 -11 5 -11 6 0 9 -4 6 -9 -3 -5 1 -12 9 -15 13 -5 14 -2 4 17 -16 30 -16 30 -24 18z" fill="#773084"/>
<path d="M11059 11813 c-8 -10 -9 -14 -2 -10 7 4 16 0 22 -10 6 -10 11 -13 11 -6 0 6 -5 15 -11 19 -8 4 -7 9 2 15 8 5 9 9 3 9 -6 0 -18 -8 -25 -17z" fill="#773084"/>
<path d="M10996 11805 c4 -8 7 -15 9 -15 2 0 5 7 9 15 3 9 0 15 -9 15 -9 0 -12 -6 -9 -15z" fill="#773084"/>
<path d="M11440 11794 c0 -8 5 -12 10 -9 6 4 8 11 5 16 -9 14 -15 11 -15 -7z" fill="#773084"/>
<path d="M11030 11791 c0 -5 -8 -11 -17 -13 -16 -3 -15 -5 2 -9 16 -5 21 -1 22 12 1 11 0 19 -3 19 -2 0 -4 -4 -4 -9z" fill="#773084"/>
<path d="M11475 11790 c-3 -6 1 -7 9 -4 18 7 21 14 7 14 -6 0 -13 -4 -16 -10z" fill="#773084"/>
<path d="M10885 11730 c2 -26 11 -34 18 -16 3 8 0 19 -7 25 -10 8 -12 6 -11 -9z" fill="#773084"/>
<path d="M11076 11733 c-6 -14 -5 -15 5 -6 7 7 10 15 7 18 -3 3 -9 -2 -12 -12z" fill="#773084"/>
<path d="M10966 11718 c3 -5 10 -6 15 -3 13 9 11 12 -6 12 -8 0 -12 -4 -9 -9z" fill="#773084"/>
<path d="M11700 11720 c0 -5 5 -10 11 -10 5 0 7 5 4 10 -3 6 -8 10 -11 10 -2 0 -4 -4 -4 -10z" fill="#773084"/>
<path d="M11621 11696 c-9 -11 -9 -16 1 -22 7 -4 10 -4 6 1 -4 4 -3 14 3 22 6 7 9 13 6 13 -2 0 -10 -6 -16 -14z" fill="#773084"/>
<path d="M10876 11654 c-9 -9 -14 -19 -11 -22 3 -3 13 2 22 11 9 9 14 19 11 22 -3 3 -13 -2 -22 -11z" fill="#773084"/>
<path d="M11030 11660 c0 -5 5 -10 10 -10 6 0 10 5 10 10 0 6 -4 10 -10 10 -5 0 -10 -4 -10 -10z" fill="#773084"/>
<path d="M11397 11657 c-3 -8 1 -14 8 -14 7 0 11 6 8 14 -3 7 -6 13 -8 13 -2 0 -5 -6 -8 -13z" fill="#773084"/>
<path d="M11434 11655 c3 -21 16 -31 16 -12 0 9 -4 18 -9 21 -5 4 -8 -1 -7 -9z" fill="#773084"/>
<path d="M11048 11637 c-7 -8 -20 -16 -28 -19 -9 -3 -10 -7 -3 -11 6 -4 23 5 37 18 15 14 23 25 17 25 -5 0 -16 -6 -23 -13z" fill="#773084"/>
<path d="M10998 11633 c7 -3 16 -2 19 1 4 3 -2 6 -13 5 -11 0 -14 -3 -6 -6z" fill="#773084"/>
<path d="M11078 11623 c7 -3 16 -2 19 1 4 3 -2 6 -13 5 -11 0 -14 -3 -6 -6z" fill="#773084"/>
<path d="M11065 11590 c3 -5 8 -10 11 -10 2 0 4 5 4 10 0 6 -5 10 -11 10 -5 0 -7 -4 -4 -10z" fill="#773084"/>
<path d="M11040 11569 c0 -6 -7 -9 -15 -5 -21 8 -19 -1 3 -13 14 -8 18 -6 19 10 1 10 0 19 -3 19 -2 0 -4 -5 -4 -11z" fill="#773084"/>
<path d="M11160 11555 c-7 -9 -8 -15 -2 -15 5 0 12 7 16 15 3 8 4 15 2 15 -2 0 -9 -7 -16 -15z" fill="#773084"/>
<path d="M12690 11540 c0 -5 7 -10 16 -10 8 0 12 5 9 10 -3 6 -10 10 -16 10 -5 0 -9 -4 -9 -10z" fill="#773084"/>
<path d="M9829 11523 c-1 -5 0 -16 1 -27 1 -10 -2 -16 -8 -13 -5 4 -9 0 -9 -8 0 -17 6 -18 26 -6 10 6 10 13 2 28 -5 11 -7 23 -4 27 3 3 3 6 0 6 -4 0 -8 -3 -8 -7z" fill="#773084"/>
<path d="M11166 11505 c9 -21 33 -26 31 -6 0 9 -9 18 -18 18 -11 1 -16 -3 -13 -12z" fill="#773084"/>
<path d="M12653 11500 c-1 -9 4 -17 11 -17 6 0 12 8 12 17 0 9 -5 17 -11 17 -6 0 -12 -8 -12 -17z" fill="#773084"/>
<path d="M9925 11490 c2 -4 16 -7 30 -7 32 0 25 9 -10 12 -14 2 -23 0 -20 -5z" fill="#773084"/>
<path d="M10090 11496 c0 -2 7 -7 16 -10 8 -3 12 -2 9 4 -6 10 -25 14 -25 6z" fill="#773084"/>
<path d="M9870 11480 c0 -5 5 -10 10 -10 6 0 10 5 10 10 0 6 -4 10 -10 10 -5 0 -10 -4 -10 -10z" fill="#773084"/>
<path d="M9983 11475 c-17 -19 -16 -25 2 -25 8 0 15 2 15 4 0 2 3 11 6 20 8 20 -7 20 -23 1z" fill="#773084"/>
<path d="M9714 11471 c4 -5 1 -12 -4 -14 -6 -3 -5 -4 2 -3 15 3 23 26 8 26 -6 0 -9 -4 -6 -9z" fill="#773084"/>
<path d="M11160 11470 c0 -5 5 -10 11 -10 5 0 7 5 4 10 -3 6 -8 10 -11 10 -2 0 -4 -4 -4 -10z" fill="#773084"/>
<path d="M11277 11473 c-10 -9 -8 -43 2 -43 5 0 9 11 9 25 0 27 -1 28 -11 18z" fill="#773084"/>
<path d="M12695 11470 c-4 -6 -15 -8 -26 -5 -11 4 -19 2 -19 -4 0 -6 8 -11 18 -11 19 1 63 30 45 30 -7 0 -15 -5 -18 -10z" fill="#773084"/>
<path d="M9930 11460 c0 -5 7 -7 15 -4 8 4 15 8 15 10 0 2 -7 4 -15 4 -8 0 -15 -4 -15 -10z" fill="#773084"/>
<path d="M10010 11460 c0 -5 12 -10 28 -9 24 0 25 1 7 9 -27 12 -35 12 -35 0z" fill="#773084"/>
<path d="M11225 11450 c10 -11 20 -20 23 -20 3 0 -3 9 -13 20 -10 11 -20 20 -23 20 -3 0 3 -9 13 -20z" fill="#773084"/>
<path d="M11295 11460 c-3 -5 -1 -10 4 -10 6 0 11 5 11 10 0 6 -2 10 -4 10 -3 0 -8 -4 -11 -10z" fill="#773084"/>
<path d="M10160 11440 c-9 -6 -10 -10 -3 -10 6 0 15 5 18 10 8 12 4 12 -15 0z" fill="#773084"/>
<path d="M11180 11441 c0 -6 4 -13 10 -16 6 -3 7 1 4 9 -7 18 -14 21 -14 7z" fill="#773084"/>
<path d="M9725 11429 c-4 -6 -5 -12 -2 -15 2 -3 7 2 10 11 7 17 1 20 -8 4z" fill="#773084"/>
<path d="M9486 11415 c-11 -8 -15 -15 -9 -15 6 0 16 7 23 15 16 19 11 19 -14 0z" fill="#773084"/>
<path d="M9673 11412 c-9 -15 -14 -15 -33 -4 -15 9 -26 10 -32 4 -7 -7 -4 -10 8 -9 10 1 23 -7 29 -18 13 -25 40 -33 31 -9 -3 9 -1 23 5 31 7 7 10 15 8 18 -3 2 -10 -4 -16 -13z" fill="#773084"/>
<path d="M12631 11411 c-7 -5 -9 -11 -5 -14 5 -3 15 1 22 9 14 16 5 18 -17 5z" fill="#773084"/>
<path d="M9517 11389 c7 -7 15 -10 18 -7 3 3 -2 9 -12 12 -14 6 -15 5 -6 -5z" fill="#773084"/>
<path d="M9561 11391 c-8 -5 -9 -11 -3 -15 5 -3 12 1 16 9 6 17 6 18 -13 6z" fill="#773084"/>
<path d="M9460 11381 c0 -6 4 -12 8 -15 5 -3 9 1 9 9 0 8 -4 15 -9 15 -4 0 -8 -4 -8 -9z" fill="#773084"/>
<path d="M9490 11346 c0 -8 7 -17 16 -20 11 -4 15 -2 11 8 -4 10 2 16 16 19 15 3 12 5 -10 6 -22 1 -33 -4 -33 -13z" fill="#773084"/>
<path d="M12415 11270 c-4 -6 3 -10 14 -10 25 0 27 6 6 13 -8 4 -17 2 -20 -3z" fill="#773084"/>
<path d="M12492 11185 c-7 -8 -8 -15 -3 -15 5 0 13 5 17 11 4 8 9 7 15 -2 5 -8 3 -16 -4 -21 -7 -4 -3 -6 10 -6 19 2 20 4 6 25 -18 27 -23 28 -41 8z" fill="#773084"/>
<path d="M12579 10912 c11 -8 11 -10 0 -15 -8 -3 -2 -5 14 -4 24 1 41 17 18 17 -5 0 -18 3 -28 6 -13 4 -15 3 -4 -4z" fill="#773084"/>
<path d="M12646 10825 c4 -8 11 -15 16 -15 6 0 5 6 -2 15 -7 8 -14 15 -16 15 -2 0 -1 -7 2 -15z" fill="#773084"/>
<path d="M12501 10781 c-7 -5 -9 -11 -4 -14 5 -3 15 -2 22 2 7 5 9 11 4 14 -5 3 -15 2 -22 -2z" fill="#773084"/>
<path d="M12430 10749 c0 -5 5 -7 10 -4 6 3 10 8 10 11 0 2 -4 4 -10 4 -5 0 -10 -5 -10 -11z" fill="#773084"/>
<path d="M12430 10720 c-18 -12 -2 -12 25 0 13 6 15 9 5 9 -8 0 -22 -4 -30 -9z" fill="#773084"/>
<path d="M12410 10690 c0 -5 5 -10 11 -10 5 0 7 5 4 10 -3 6 -8 10 -11 10 -2 0 -4 -4 -4 -10z" fill="#773084"/>
<path d="M12636 10657 c3 -10 9 -15 12 -12 3 3 0 11 -7 18 -10 9 -11 8 -5 -6z" fill="#773084"/>
<path d="M12661 10593 c8 -9 8 -13 0 -13 -6 0 -11 -4 -11 -10 0 -5 7 -10 15 -10 8 0 15 -5 15 -11 0 -5 5 -7 11 -3 8 4 7 9 -2 15 -12 8 -11 11 1 19 13 8 12 10 -3 10 -10 0 -16 4 -13 8 3 5 -1 9 -9 9 -11 0 -12 -4 -4 -14z" fill="#773084"/>
<path d="M12760 10546 c-6 -8 -18 -12 -26 -9 -8 3 -14 0 -14 -6 0 -16 26 -13 44 5 16 15 20 24 12 24 -2 0 -9 -6 -16 -14z" fill="#773084"/>
<path d="M13657 10508 c10 -11 17 -23 16 -27 -6 -14 9 -41 19 -35 7 5 9 2 6 -8 -4 -9 0 -15 8 -15 19 0 18 10 -6 37 -11 13 -20 25 -20 27 0 7 25 -2 32 -12 5 -6 8 -6 8 1 0 7 -18 21 -41 32 l-41 20 19 -20z" fill="#773084"/>
<path d="M13790 10269 c0 -5 5 -7 10 -4 6 3 10 8 10 11 0 2 -4 4 -10 4 -5 0 -10 -5 -10 -11z" fill="#773084"/>
<path d="M13815 10251 c3 -5 1 -13 -5 -16 -8 -5 -8 -11 0 -20 8 -10 7 -16 -7 -25 -16 -10 -16 -10 4 -5 18 5 20 2 16 -14 -3 -12 -9 -18 -14 -15 -5 3 -4 -7 2 -23 14 -37 16 -43 44 -178 4 -16 9 -37 12 -45 4 -8 5 -19 4 -25 -1 -5 10 3 24 19 14 16 22 32 19 35 -3 3 -11 -2 -18 -11 -7 -10 -16 -15 -19 -11 -12 11 -8 23 8 23 8 0 15 4 15 9 0 5 3 17 7 27 5 14 3 16 -11 11 -10 -4 -15 -3 -11 3 3 6 2 10 -2 10 -5 0 -14 9 -21 21 -8 12 -9 18 -3 14 6 -3 11 1 11 9 0 9 -4 16 -8 16 -12 0 -41 69 -32 75 5 3 6 15 2 27 -3 13 -1 19 5 15 6 -4 14 0 17 9 4 12 2 15 -9 10 -18 -7 -20 5 -2 23 6 7 8 12 2 11 -21 -4 -30 1 -17 9 11 7 10 9 -3 14 -9 4 -13 3 -10 -2z" fill="#773084"/>
<path d="M13857 10133 c-11 -10 -8 -43 4 -43 5 0 7 5 4 10 -3 6 -1 10 4 10 6 0 11 7 11 15 0 16 -12 20 -23 8z" fill="#773084"/>
<path d="M13886 10023 c-6 -14 -5 -15 5 -6 7 7 10 15 7 18 -3 3 -9 -2 -12 -12z" fill="#773084"/>
<path d="M13904 9885 c-4 -8 -12 -15 -19 -15 -8 0 -11 -8 -8 -20 3 -11 9 -17 14 -14 5 3 7 9 5 13 -3 4 4 18 15 29 11 12 15 22 9 22 -6 0 -13 -7 -16 -15z" fill="#773084"/>
<path d="M13566 9745 c4 -8 11 -15 16 -15 6 0 5 6 -2 15 -7 8 -14 15 -16 15 -2 0 -1 -7 2 -15z" fill="#773084"/>
<path d="M13690 9689 c0 -5 5 -7 10 -4 6 3 10 8 10 11 0 2 -4 4 -10 4 -5 0 -10 -5 -10 -11z" fill="#773084"/>
<path d="M13570 9680 c0 -5 5 -10 11 -10 5 0 7 5 4 10 -3 6 -8 10 -11 10 -2 0 -4 -4 -4 -10z" fill="#773084"/>
<path d="M13632 9660 c2 -8 8 -18 13 -22 15 -11 55 -10 55 2 0 5 -7 7 -15 3 -9 -3 -25 3 -36 13 -15 14 -20 15 -17 4z" fill="#773084"/>
<path d="M13725 9661 c3 -6 1 -11 -6 -11 -20 0 -1 -14 21 -15 26 -2 25 7 -1 23 -12 8 -18 9 -14 3z" fill="#773084"/>
<path d="M7363 9305 c-108 -75 -101 -284 11 -383 82 -71 172 -42 211 68 19 54 13 130 -17 199 -44 105 -142 160 -205 116z" fill="#773084"/>
<path d="M7792 9134 c-133 -68 -133 -311 0 -380 89 -46 198 55 201 185 2 67 -38 159 -79 186 -38 25 -84 28 -122 9z" fill="#773084"/>
<path d="M6944 9111 c-21 -13 -38 -36 -49 -66 -16 -40 -16 -53 -6 -100 41 -180 259 -285 326 -155 34 65 5 184 -65 263 -67 75 -143 97 -206 58z" fill="#773084"/>
<path d="M8136 9001 c-8 -13 31 -44 45 -35 8 4 10 3 5 -4 -4 -7 -14 -12 -22 -12 -8 0 -12 -5 -9 -10 4 -6 3 -10 -2 -9 -23 4 -43 -2 -38 -11 4 -6 11 -7 17 -4 7 5 8 2 3 -5 -4 -8 -17 -10 -34 -7 -17 5 -21 4 -12 -3 7 -5 11 -13 7 -19 -3 -6 4 -13 16 -15 l23 -4 -22 -8 c-13 -4 -20 -11 -17 -16 3 -5 0 -9 -5 -9 -6 0 -11 7 -11 15 0 8 -5 15 -10 15 -24 0 12 -39 41 -45 23 -5 28 -9 18 -16 -8 -5 -15 -4 -17 1 -2 6 -8 10 -13 10 -4 0 -5 -7 -2 -17 4 -11 3 -14 -5 -9 -7 4 -12 3 -12 -3 0 -5 6 -12 13 -14 9 -4 8 -6 -2 -6 -8 -1 -20 7 -27 17 -12 15 -13 15 -14 1 0 -9 10 -21 23 -28 14 -7 15 -10 3 -6 -13 4 -17 1 -13 -9 5 -12 -20 -26 -55 -30 -3 -1 -9 -4 -12 -7 -10 -10 28 -7 42 4 9 7 11 6 6 -7 -3 -9 -16 -17 -28 -17 -18 -1 -18 -2 -3 -6 17 -4 17 -6 2 -23 -9 -10 -23 -16 -31 -13 -23 8 -16 22 9 16 18 -4 19 -3 7 6 -8 6 -29 11 -47 11 -17 0 -35 5 -38 11 -4 6 0 9 10 7 10 -2 20 3 23 11 4 11 0 12 -14 6 -29 -13 -107 -11 -112 3 -4 13 -48 17 -55 5 -2 -5 -2 -2 -1 5 2 6 -1 12 -6 12 -10 0 -14 -15 -10 -35 1 -5 -2 -6 -7 -2 -4 5 -8 13 -8 18 0 5 -3 9 -7 9 -5 0 -13 0 -19 0 -5 0 -7 -5 -3 -12 4 -7 3 -8 -5 -4 -6 4 -9 11 -7 15 3 4 -8 12 -24 18 -23 9 -28 8 -23 -3 3 -8 9 -14 14 -14 5 0 9 -4 9 -9 0 -5 -30 6 -66 25 -86 45 -155 47 -235 7 -74 -38 -111 -95 -139 -215 -20 -88 -57 -189 -59 -160 -1 7 -8 21 -17 29 -13 13 -13 17 -2 24 11 7 11 9 0 9 -7 0 -20 -7 -28 -15 -21 -20 -38 -19 -29 3 28 74 10 140 -57 205 -86 83 -170 107 -236 67 -37 -23 -62 -72 -62 -122 0 -39 29 -104 59 -136 13 -12 19 -28 15 -35 -4 -6 -4 -9 0 -5 5 4 24 -2 44 -13 20 -10 58 -22 84 -25 47 -6 77 -34 37 -34 -11 0 -17 5 -14 10 3 6 2 10 -4 10 -5 0 -12 -6 -15 -12 -3 -10 -8 -9 -18 2 -7 9 -21 14 -32 12 -11 -2 -16 0 -12 7 6 9 -6 13 -31 10 -3 0 -10 7 -16 16 -8 15 -12 14 -38 -11 -22 -21 -26 -30 -17 -37 10 -7 10 -10 0 -14 -7 -2 -19 -11 -26 -19 -10 -9 -16 -10 -18 -2 -3 8 -10 8 -26 -1 -12 -7 -27 -9 -32 -6 -6 3 -10 1 -10 -4 0 -6 7 -11 15 -11 9 0 12 -6 9 -15 -4 -8 -1 -15 7 -15 7 0 9 -3 5 -7 -4 -4 -17 5 -30 20 -21 24 -24 25 -30 10 -6 -15 -8 -15 -16 -3 -13 20 -20 9 -22 -33 -1 -40 50 -134 70 -129 7 1 11 -1 11 -5 -3 -18 2 -36 7 -30 4 4 14 -7 23 -23 25 -47 213 -232 306 -303 6 -4 50 -39 99 -78 50 -39 100 -76 113 -82 13 -5 23 -14 23 -18 0 -4 8 -10 18 -13 9 -3 31 -18 47 -32 46 -40 280 -188 363 -230 32 -16 59 -32 60 -36 2 -5 10 -8 18 -8 8 0 14 -4 14 -10 0 -5 6 -10 13 -10 7 0 30 -12 50 -26 21 -14 41 -23 44 -21 2 3 -3 47 -12 99 -36 204 -29 510 16 699 45 191 135 407 235 566 45 71 147 203 232 301 34 39 58 72 53 72 -6 0 -26 14 -45 30 -19 17 -38 29 -43 28 -4 -1 -18 3 -30 10 -15 8 -23 9 -23 2 0 -6 7 -13 15 -16 8 -4 15 -11 15 -17 0 -5 -8 -3 -17 5 -10 9 -23 13 -30 11 -6 -2 -14 1 -18 6 -3 7 0 8 9 5 9 -3 16 -2 16 3 0 5 -12 10 -26 11 -20 1 -25 -2 -20 -13 3 -8 1 -15 -4 -15 -9 0 -14 14 -11 33 0 4 -6 7 -14 7 -9 0 -12 -6 -9 -15 4 -8 3 -15 -1 -15 -11 0 -34 27 -28 34 4 3 4 6 0 6 -3 0 -8 -4 -11 -9z m74 -61 c0 -5 -4 -10 -10 -10 -5 0 -10 5 -10 10 0 6 5 10 10 10 6 0 10 -4 10 -10z m35 0 c3 -5 1 -10 -4 -10 -6 0 -11 5 -11 10 0 6 2 10 4 10 3 0 8 -4 11 -10z m-90 -80 c-3 -5 2 -10 11 -10 10 0 15 -3 11 -6 -10 -10 -39 5 -32 16 3 5 8 10 11 10 3 0 2 -4 -1 -10z m-345 -160 c0 -5 -2 -10 -4 -10 -3 0 -8 5 -11 10 -3 6 -1 10 4 10 6 0 11 -4 11 -10z m-670 -300 c0 -5 -5 -10 -11 -10 -5 0 -7 5 -4 10 3 6 8 10 11 10 2 0 4 -4 4 -10z m-95 -51 c4 -5 -2 -6 -11 -2 -13 5 -15 3 -9 -8 8 -12 6 -12 -8 0 -21 17 -21 16 3 18 11 1 22 -2 25 -8z m-160 -29 c3 -5 2 -10 -4 -10 -5 0 -13 5 -16 10 -3 6 -2 10 4 10 5 0 13 -4 16 -10z m-71 -11 c-3 -6 0 -15 7 -20 9 -6 10 -9 2 -9 -15 0 -26 17 -18 30 3 6 8 10 11 10 3 0 2 -5 -2 -11z m136 -29 c0 -5 -8 -10 -17 -10 -15 0 -16 2 -3 10 19 12 20 12 20 0z m-103 -45 c0 -8 -4 -12 -9 -9 -5 3 -6 10 -3 15 9 13 12 11 12 -6z m-40 -42 c0 -16 -2 -21 -7 -13 -5 8 -10 8 -14 2 -7 -11 -43 -5 -52 9 -3 5 9 6 26 3 19 -4 30 -2 30 5 0 6 -5 11 -11 11 -5 0 -8 4 -4 10 10 17 30 0 32 -27z m47 -41 c3 -5 -1 -9 -9 -9 -8 0 -12 4 -9 9 3 4 7 8 9 8 2 0 6 -4 9 -8z" fill="#773084"/>
<path d="M8126 8953 c-6 -14 -5 -15 5 -6 7 7 10 15 7 18 -3 3 -9 -2 -12 -12z" fill="#773084"/>
<path d="M7600 8776 c0 -2 7 -9 15 -16 13 -11 14 -10 9 4 -5 14 -24 23 -24 12z" fill="#773084"/>
<path d="M6765 8391 c-3 -7 0 -8 9 -5 17 7 22 -11 6 -19 -6 -3 -5 -4 2 -3 16 3 17 28 1 33 -6 2 -14 -1 -18 -6z" fill="#773084"/>
<path d="M6738 8343 c7 -3 16 -2 19 1 4 3 -2 6 -13 5 -11 0 -14 -3 -6 -6z" fill="#773084"/>
<path d="M6748 8313 c7 -3 16 -2 19 1 4 3 -2 6 -13 5 -11 0 -14 -3 -6 -6z" fill="#773084"/>
<path d="M8315 7900 c-3 -5 -1 -10 4 -10 6 0 11 5 11 10 0 6 -2 10 -4 10 -3 0 -8 -4 -11 -10z" fill="#773084"/>
<path d="M8700 7850 c-6 -11 -8 -25 -5 -30 3 -6 1 -10 -5 -10 -6 0 -8 -5 -5 -11 13 -20 28 -3 30 34 1 43 0 44 -15 17z" fill="#773084"/>
<path d="M8423 7848 c-12 -21 -14 -50 -2 -43 6 4 8 13 5 20 -2 7 1 18 7 24 6 6 8 11 5 11 -4 0 -10 -6 -15 -12z" fill="#773084"/>
<path d="M8510 7825 c0 -8 5 -15 10 -15 6 0 10 7 10 15 0 8 -4 15 -10 15 -5 0 -10 -7 -10 -15z" fill="#773084"/>
<path d="M8640 7790 c0 -5 9 -8 20 -7 21 1 18 10 -5 13 -8 1 -15 -2 -15 -6z" fill="#773084"/>
</g>
</svg>